<?xml version="1.0" encoding="UTF-8"?><svg xmlns="http://www.w3.org/2000/svg" xmlns:xlink="http://www.w3.org/1999/xlink" contentScriptType="text/ecmascript" width="75" zoomAndPan="magnify" contentStyleType="text/css" viewBox="0 0 75 52.499999" height="52.499999" preserveAspectRatio="xMidYMid meet" version="1.0"><defs><clipPath id="clip-0"><path d="M 1.832031 1 L 73.152344 1 L 73.152344 51.902344 L 1.832031 51.902344 Z M 1.832031 1 " clip-rule="nonzero"/></clipPath></defs><g clip-path="url(#clip-0)"><path fill="rgb(82.749939%, 82.749939%, 82.749939%)" d="M 37.222656 1.039062 C 31.628906 7.414062 28.703125 17.972656 29.066406 28.40625 L 45.335938 28.40625 C 45.839844 17.761719 42.90625 7.246094 37.222656 1.039062 Z M 1.832031 14.566406 C 2.382812 19.914062 3.496094 24.234375 5.308594 28.40625 L 25.097656 28.40625 C 19.878906 20.574219 12.011719 16.375 1.832031 14.566406 Z M 73.152344 14.613281 C 62.804688 16.179688 54.820312 20.597656 49.257812 28.40625 L 69.40625 28.40625 C 71.300781 24.292969 72.503906 19.835938 73.152344 14.613281 Z M 6.824219 32.414062 C 7.363281 33.585938 8.25 35.054688 9.007812 36.105469 L 65.574219 36.0625 C 66.398438 34.910156 67.140625 33.726562 67.714844 32.414062 Z M 11.636719 39.84375 C 12.808594 41.390625 13.789062 42.019531 15.25 43.183594 L 59.066406 43.183594 C 60.292969 42.226562 61.578125 41.097656 62.722656 39.84375 Z M 19.929688 46.253906 C 23.667969 48.5625 28.050781 50.074219 33.035156 51.105469 L 32.453125 46.253906 Z M 33.65625 46.253906 C 34.621094 48.257812 35.863281 49.9375 37.269531 51.550781 C 38.648438 49.910156 39.546875 48.226562 40.523438 46.253906 Z M 41.992188 46.253906 L 41.234375 50.835938 C 46.238281 49.917969 50.648438 48.46875 54.472656 46.253906 Z M 41.992188 46.253906 " fill-opacity="1" fill-rule="nonzero"/></g></svg>