<?xml version="1.0" encoding="UTF-8"?><svg xmlns="http://www.w3.org/2000/svg" xmlns:xlink="http://www.w3.org/1999/xlink" contentScriptType="text/ecmascript" width="30" zoomAndPan="magnify" contentStyleType="text/css" viewBox="0 0 30 30.000001" height="30.000001" preserveAspectRatio="xMidYMid meet" version="1.0"><defs><clipPath id="clip-0"><path d="M 1 0 L 13 0 L 13 12 L 1 12 Z M 1 0 " clip-rule="nonzero"/></clipPath><clipPath id="clip-1"><path d="M 2.300781 0 L 13.078125 10.78125 L 12.050781 11.804688 L 1.273438 1.027344 Z M 2.300781 0 " clip-rule="nonzero"/></clipPath><clipPath id="clip-2"><path d="M 2.300781 0 L 13.078125 10.78125 L 12.050781 11.804688 L 1.273438 1.027344 Z M 2.300781 0 " clip-rule="nonzero"/></clipPath><clipPath id="clip-3"><path d="M 11.449219 11.191406 L 1.90625 1.648438 C 1.582031 1.320312 1.519531 0.828125 1.78125 0.542969 C 2.058594 0.246094 2.566406 0.28125 2.902344 0.621094 L 12.449219 10.164062 C 12.773438 10.488281 12.835938 10.980469 12.574219 11.265625 C 12.296875 11.566406 11.789062 11.527344 11.449219 11.191406 Z M 11.449219 11.191406 " clip-rule="nonzero"/></clipPath><clipPath id="clip-4"><path d="M 19 18 L 29.515625 18 L 29.515625 29 L 19 29 Z M 19 18 " clip-rule="nonzero"/></clipPath><clipPath id="clip-5"><path d="M 19.765625 17.808594 L 30.027344 28.074219 L 29 29.101562 L 18.738281 18.835938 Z M 19.765625 17.808594 " clip-rule="nonzero"/></clipPath><clipPath id="clip-6"><path d="M 19.765625 17.808594 L 30.027344 28.074219 L 29 29.101562 L 18.738281 18.835938 Z M 19.765625 17.808594 " clip-rule="nonzero"/></clipPath><clipPath id="clip-7"><path d="M 28.429688 28.515625 L 19.339844 19.425781 C 19.03125 19.117188 18.980469 18.636719 19.246094 18.351562 C 19.523438 18.050781 20.019531 18.074219 20.339844 18.394531 L 29.429688 27.484375 C 29.742188 27.796875 29.789062 28.273438 29.523438 28.5625 C 29.246094 28.859375 28.75 28.839844 28.429688 28.515625 Z M 28.429688 28.515625 " clip-rule="nonzero"/></clipPath><clipPath id="clip-8"><path d="M 1 17 L 12 17 L 12 29 L 1 29 Z M 1 17 " clip-rule="nonzero"/></clipPath><clipPath id="clip-9"><path d="M 0.714844 27.871094 L 10.976562 17.609375 L 12.003906 18.632812 L 1.738281 28.898438 Z M 0.714844 27.871094 " clip-rule="nonzero"/></clipPath><clipPath id="clip-10"><path d="M 0.714844 27.871094 L 10.976562 17.609375 L 12.003906 18.632812 L 1.738281 28.898438 Z M 0.714844 27.871094 " clip-rule="nonzero"/></clipPath><clipPath id="clip-11"><path d="M 11.421875 19.207031 L 2.332031 28.296875 C 2.019531 28.605469 1.542969 28.65625 1.253906 28.390625 C 0.957031 28.113281 0.976562 27.617188 1.296875 27.292969 L 10.386719 18.203125 C 10.699219 17.894531 11.179688 17.84375 11.464844 18.109375 C 11.765625 18.390625 11.742188 18.886719 11.421875 19.207031 Z M 11.421875 19.207031 " clip-rule="nonzero"/></clipPath><clipPath id="clip-12"><path d="M 18 0 L 29.515625 0 L 29.515625 12 L 18 12 Z M 18 0 " clip-rule="nonzero"/></clipPath><clipPath id="clip-13"><path d="M 18.226562 10.699219 L 28.492188 0.433594 L 29.519531 1.460938 L 19.253906 11.726562 Z M 18.226562 10.699219 " clip-rule="nonzero"/></clipPath><clipPath id="clip-14"><path d="M 18.226562 10.699219 L 28.492188 0.433594 L 29.519531 1.460938 L 19.253906 11.726562 Z M 18.226562 10.699219 " clip-rule="nonzero"/></clipPath><clipPath id="clip-15"><path d="M 28.933594 2.035156 L 19.847656 11.125 C 19.535156 11.433594 19.054688 11.484375 18.769531 11.214844 C 18.46875 10.9375 18.492188 10.441406 18.8125 10.121094 L 27.902344 1.03125 C 28.210938 0.722656 28.691406 0.671875 28.980469 0.9375 C 29.277344 1.214844 29.257812 1.710938 28.933594 2.035156 Z M 28.933594 2.035156 " clip-rule="nonzero"/></clipPath></defs><g clip-path="url(#clip-0)"><g clip-path="url(#clip-1)"><g clip-path="url(#clip-2)"><g clip-path="url(#clip-3)"><path fill="rgb(6.698608%, 6.698608%, 6.698608%)" d="M 7.175781 -5.414062 L -4.140625 5.90625 L 7.175781 17.222656 L 18.496094 5.90625 Z M 7.175781 -5.414062 " fill-opacity="1" fill-rule="nonzero"/></g></g></g></g><g clip-path="url(#clip-4)"><g clip-path="url(#clip-5)"><g clip-path="url(#clip-6)"><g clip-path="url(#clip-7)"><path fill="rgb(6.698608%, 6.698608%, 6.698608%)" d="M 24.246094 12.785156 L 13.574219 23.457031 L 24.246094 34.128906 L 34.921875 23.457031 Z M 24.246094 12.785156 " fill-opacity="1" fill-rule="nonzero"/></g></g></g></g><g clip-path="url(#clip-8)"><g clip-path="url(#clip-9)"><g clip-path="url(#clip-10)"><g clip-path="url(#clip-11)"><path fill="rgb(6.698608%, 6.698608%, 6.698608%)" d="M -4.449219 23.25 L 6.359375 34.0625 L 17.171875 23.25 L 6.359375 12.441406 Z M -4.449219 23.25 " fill-opacity="1" fill-rule="nonzero"/></g></g></g></g><g clip-path="url(#clip-12)"><g clip-path="url(#clip-13)"><g clip-path="url(#clip-14)"><g clip-path="url(#clip-15)"><path fill="rgb(6.698608%, 6.698608%, 6.698608%)" d="M 13.0625 6.078125 L 23.875 16.886719 L 34.683594 6.078125 L 23.875 -4.734375 Z M 13.0625 6.078125 " fill-opacity="1" fill-rule="nonzero"/></g></g></g></g></svg>