<?xml version="1.0" encoding="UTF-8"?><svg xmlns="http://www.w3.org/2000/svg" xmlns:xlink="http://www.w3.org/1999/xlink" contentScriptType="text/ecmascript" width="97.5" zoomAndPan="magnify" contentStyleType="text/css" viewBox="0 0 97.5 30.000001" height="30.000001" preserveAspectRatio="xMidYMid meet" version="1.0"><defs><clipPath id="clip-0"><path d="M 1.332031 1 L 88 1 L 88 23 L 1.332031 23 Z M 1.332031 1 " clip-rule="nonzero"/></clipPath><clipPath id="clip-1"><path d="M 7 1 L 95.683594 1 L 95.683594 28.605469 L 7 28.605469 Z M 7 1 " clip-rule="nonzero"/></clipPath></defs><g clip-path="url(#clip-0)"><path fill="rgb(82.749939%, 82.749939%, 82.749939%)" d="M 35.867188 7.773438 L 39.910156 7.773438 C 43.371094 7.773438 45.558594 10.042969 45.558594 13.566406 C 45.558594 17.089844 43.378906 19.355469 39.910156 19.355469 L 35.867188 19.355469 Z M 39.816406 17.222656 C 41.992188 17.222656 43.179688 15.816406 43.179688 13.566406 C 43.179688 11.296875 41.980469 9.886719 39.816406 9.886719 L 38.230469 9.886719 L 38.230469 17.222656 Z M 51.691406 13.230469 C 51.382812 13.035156 50.957031 12.957031 50.53125 12.957031 C 49.757812 12.957031 49.117188 13.367188 48.945312 14.152344 L 48.945312 19.371094 L 46.625 19.371094 L 46.625 10.921875 L 48.945312 10.921875 L 48.945312 11.746094 C 49.292969 11.136719 49.988281 10.726562 50.800781 10.726562 C 51.179688 10.726562 51.554688 10.804688 51.671875 10.882812 Z M 56.292969 19.527344 C 53.875 19.527344 52.210938 17.710938 52.210938 15.128906 C 52.210938 12.527344 53.875 10.707031 56.292969 10.707031 C 58.710938 10.707031 60.375 12.527344 60.375 15.128906 C 60.375 17.730469 58.730469 19.527344 56.292969 19.527344 Z M 56.292969 12.734375 C 55.132812 12.734375 54.496094 13.75 54.496094 15.160156 C 54.496094 16.546875 55.132812 17.5625 56.292969 17.5625 C 57.453125 17.5625 58.09375 16.546875 58.09375 15.160156 C 58.09375 13.75 57.453125 12.734375 56.292969 12.734375 Z M 63.683594 22.472656 L 61.359375 22.472656 L 61.359375 10.933594 L 63.683594 10.933594 L 63.683594 11.632812 C 64.050781 11.183594 64.882812 10.75 65.769531 10.75 C 68.1875 10.75 69.582031 12.785156 69.582031 15.171875 C 69.582031 17.539062 68.207031 19.574219 65.769531 19.574219 C 64.882812 19.574219 64.046875 19.140625 63.683594 18.691406 Z M 63.683594 16.527344 C 63.953125 17.113281 64.570312 17.503906 65.25 17.503906 C 66.503906 17.503906 67.242188 16.488281 67.242188 15.160156 C 67.242188 13.820312 66.488281 12.792969 65.25 12.792969 C 64.917969 12.789062 64.609375 12.878906 64.328125 13.054688 C 64.042969 13.230469 63.828125 13.46875 63.683594 13.769531 Z M 72.90625 19.363281 L 70.585938 19.363281 L 70.585938 7.113281 L 72.90625 7.113281 L 72.90625 11.628906 C 73.273438 11.179688 74.105469 10.75 74.996094 10.75 C 77.414062 10.75 78.785156 12.742188 78.785156 15.167969 C 78.785156 17.59375 77.433594 19.570312 74.996094 19.570312 C 74.105469 19.570312 73.273438 19.140625 72.90625 18.6875 Z M 72.90625 16.527344 C 73.160156 17.113281 73.777344 17.503906 74.472656 17.503906 C 75.730469 17.503906 76.464844 16.488281 76.464844 15.160156 C 76.464844 13.820312 75.710938 12.792969 74.472656 12.792969 C 73.796875 12.792969 73.175781 13.203125 72.90625 13.769531 Z M 83.679688 19.578125 C 81.261719 19.578125 79.597656 17.761719 79.597656 15.175781 C 79.597656 12.574219 81.261719 10.757812 83.679688 10.757812 C 86.097656 10.757812 87.761719 12.574219 87.761719 15.175781 C 87.761719 17.757812 86.097656 19.578125 83.679688 19.578125 Z M 83.679688 12.753906 C 82.519531 12.753906 81.882812 13.769531 81.882812 15.175781 C 81.882812 16.566406 82.519531 17.582031 83.679688 17.582031 C 84.839844 17.582031 85.480469 16.566406 85.480469 15.175781 C 85.480469 13.769531 84.839844 12.753906 83.679688 12.753906 Z M 9.929688 1.0625 L 1.316406 6.671875 L 7.28125 11.53125 L 15.921875 6.140625 M 1.316406 16.304688 L 9.929688 22.027344 L 15.921875 16.953125 L 7.28125 11.539062 M 15.921875 16.953125 L 21.941406 22.027344 L 30.523438 16.363281 L 24.589844 11.53125 " fill-opacity="1" fill-rule="nonzero"/></g><g clip-path="url(#clip-1)"><path fill="rgb(82.749939%, 82.749939%, 82.749939%)" d="M 30.519531 6.722656 L 21.9375 1.054688 L 15.917969 6.128906 L 24.585938 11.519531 M 15.945312 18.023438 L 9.925781 23.074219 L 7.328125 21.371094 L 7.328125 23.296875 L 15.941406 28.519531 L 24.554688 23.296875 L 24.554688 21.371094 L 21.960938 23.074219 M 93.164062 15.066406 L 96.199219 19.425781 L 93.648438 19.425781 L 91.847656 16.785156 L 90.03125 19.425781 L 87.613281 19.425781 L 90.613281 15.125 L 87.789062 10.996094 L 90.339844 10.996094 L 91.945312 13.382812 L 93.589844 10.996094 L 96.007812 10.996094 Z M 93.164062 15.066406 " fill-opacity="1" fill-rule="nonzero"/></g></svg>