<?xml version="1.0" encoding="UTF-8"?><svg xmlns="http://www.w3.org/2000/svg" xmlns:xlink="http://www.w3.org/1999/xlink" contentScriptType="text/ecmascript" width="97.5" zoomAndPan="magnify" contentStyleType="text/css" viewBox="0 0 97.5 30.000001" height="30.000001" preserveAspectRatio="xMidYMid meet" version="1.0"><defs><clipPath id="clip-0"><path d="M 2 1.917969 L 22 1.917969 L 22 22 L 2 22 Z M 2 1.917969 " clip-rule="nonzero"/></clipPath><clipPath id="clip-1"><path d="M 50 2 L 95.683594 2 L 95.683594 27.449219 L 50 27.449219 Z M 50 2 " clip-rule="nonzero"/></clipPath></defs><g clip-path="url(#clip-0)"><path fill="rgb(82.749939%, 82.749939%, 82.749939%)" d="M 21.390625 10.929688 L 12.363281 10.929688 L 12.363281 13.628906 L 18.765625 13.628906 C 18.449219 17.414062 15.324219 19.027344 12.375 19.027344 C 8.601562 19.027344 5.308594 16.035156 5.308594 11.839844 C 5.308594 7.753906 8.449219 4.609375 12.375 4.609375 C 15.414062 4.609375 17.203125 6.558594 17.203125 6.558594 L 19.078125 4.601562 C 19.078125 4.601562 16.671875 1.910156 12.277344 1.910156 C 6.6875 1.910156 2.363281 6.664062 2.363281 11.808594 C 2.367188 12.46875 2.441406 13.121094 2.574219 13.765625 C 2.707031 14.410156 2.902344 15.035156 3.160156 15.644531 C 3.417969 16.25 3.730469 16.824219 4.097656 17.367188 C 4.464844 17.914062 4.882812 18.414062 5.351562 18.875 C 5.816406 19.339844 6.324219 19.75 6.871094 20.109375 C 7.417969 20.472656 7.996094 20.773438 8.601562 21.023438 C 9.207031 21.269531 9.832031 21.453125 10.476562 21.574219 C 11.117188 21.699219 11.765625 21.757812 12.421875 21.75 C 17.6875 21.75 21.546875 18.113281 21.546875 12.734375 C 21.546875 11.601562 21.375 10.945312 21.375 10.945312 Z M 21.390625 10.929688 " fill-opacity="1" fill-rule="nonzero"/></g><path fill="rgb(82.749939%, 82.749939%, 82.749939%)" d="M 28.785156 8.976562 C 25.082031 8.976562 22.425781 11.894531 22.425781 15.296875 C 22.425781 18.75 25.003906 21.722656 28.832031 21.722656 C 32.296875 21.722656 35.136719 19.054688 35.136719 15.371094 C 35.136719 11.152344 31.835938 8.976562 28.789062 8.976562 Z M 28.824219 11.480469 C 30.644531 11.480469 32.371094 12.957031 32.371094 15.355469 C 32.371094 17.695312 30.652344 19.222656 28.816406 19.222656 C 26.796875 19.222656 25.195312 17.59375 25.195312 15.335938 C 25.195312 13.128906 26.769531 11.480469 28.816406 11.480469 Z M 28.824219 11.480469 " fill-opacity="1" fill-rule="nonzero"/><path fill="rgb(82.749939%, 82.749939%, 82.749939%)" d="M 42.617188 8.976562 C 38.914062 8.976562 36.257812 11.894531 36.257812 15.296875 C 36.257812 18.75 38.832031 21.722656 42.660156 21.722656 C 46.125 21.722656 48.964844 19.054688 48.964844 15.371094 C 48.964844 11.152344 45.664062 8.976562 42.617188 8.976562 Z M 42.652344 11.480469 C 44.476562 11.480469 46.203125 12.957031 46.203125 15.355469 C 46.203125 17.695312 44.484375 19.222656 42.644531 19.222656 C 40.625 19.222656 39.023438 17.59375 39.023438 15.335938 C 39.023438 13.128906 40.597656 11.480469 42.644531 11.480469 Z M 42.652344 11.480469 " fill-opacity="1" fill-rule="nonzero"/><g clip-path="url(#clip-1)"><path fill="rgb(82.749939%, 82.749939%, 82.749939%)" d="M 56.183594 8.980469 C 52.78125 8.980469 50.109375 11.984375 50.109375 15.351562 C 50.109375 19.1875 53.207031 21.730469 56.125 21.730469 C 57.925781 21.730469 58.886719 21.011719 59.59375 20.183594 L 59.59375 21.4375 C 59.59375 23.636719 58.269531 24.953125 56.265625 24.953125 C 54.335938 24.953125 53.367188 23.507812 53.03125 22.6875 L 50.597656 23.710938 C 51.460938 25.546875 53.199219 27.464844 56.289062 27.464844 C 59.667969 27.464844 62.246094 25.320312 62.246094 20.820312 L 62.246094 9.363281 L 59.59375 9.363281 L 59.59375 10.445312 C 58.777344 9.558594 57.660156 8.980469 56.183594 8.980469 Z M 56.429688 11.480469 C 58.09375 11.480469 59.808594 12.914062 59.808594 15.363281 C 59.808594 17.855469 58.097656 19.226562 56.390625 19.226562 C 54.578125 19.226562 52.890625 17.742188 52.890625 15.386719 C 52.890625 12.941406 54.644531 11.480469 56.429688 11.480469 Z M 74.046875 8.964844 C 70.839844 8.964844 68.144531 11.535156 68.144531 15.332031 C 68.144531 19.347656 71.148438 21.730469 74.351562 21.730469 C 77.03125 21.730469 78.664062 20.253906 79.652344 18.933594 L 77.464844 17.464844 C 76.898438 18.355469 75.949219 19.21875 74.367188 19.21875 C 72.589844 19.21875 71.769531 18.238281 71.261719 17.289062 L 79.746094 13.742188 L 79.3125 12.703125 C 78.496094 10.667969 76.582031 8.96875 74.054688 8.96875 Z M 74.15625 11.417969 C 75.3125 11.417969 76.144531 12.039062 76.496094 12.78125 L 70.832031 15.164062 C 70.589844 13.316406 72.324219 11.417969 74.15625 11.417969 Z M 64.09375 21.351562 L 66.878906 21.351562 L 66.878906 2.5625 L 64.09375 2.5625 Z M 86.644531 7.082031 L 90.871094 7.082031 L 90.988281 11.460938 L 95.21875 11.460938 L 95.21875 15.839844 L 90.988281 15.839844 L 90.871094 20.097656 L 86.644531 20.097656 L 86.644531 15.839844 L 82.296875 15.839844 L 82.296875 11.460938 L 86.644531 11.460938 Z M 86.644531 7.082031 " fill-opacity="1" fill-rule="nonzero"/></g></svg>