<?xml version="1.0" encoding="UTF-8"?><svg xmlns="http://www.w3.org/2000/svg" xmlns:xlink="http://www.w3.org/1999/xlink" contentScriptType="text/ecmascript" width="375" zoomAndPan="magnify" contentStyleType="text/css" viewBox="0 0 375 374.999991" height="374.999991" preserveAspectRatio="xMidYMid meet" version="1.0"><defs><clipPath id="clip-0"><path d="M 0 90.703125 L 375 90.703125 L 375 284.203125 L 0 284.203125 Z M 0 90.703125 " clip-rule="nonzero"/></clipPath></defs><rect x="-37.5" width="450" fill="rgb(100%, 100%, 100%)" y="-37.499999" height="449.999989" fill-opacity="1"/><rect x="-37.5" width="450" fill="rgb(100%, 100%, 100%)" y="-37.499999" height="449.999989" fill-opacity="1"/><rect x="-37.5" width="450" fill="rgb(100%, 100%, 100%)" y="-37.499999" height="449.999989" fill-opacity="1"/><path fill="rgb(92.549133%, 32.159424%, 25.878906%)" d="M 262.390625 221.785156 L 112.511719 221.785156 L 112.511719 159.363281 L 262.390625 159.363281 L 262.390625 221.785156 " fill-opacity="1" fill-rule="nonzero"/><path fill="rgb(92.549133%, 32.159424%, 25.878906%)" d="M 100.023438 277.960938 L 87.53125 277.960938 C 80.628906 277.960938 75.042969 272.378906 75.042969 265.476562 L 75.042969 115.671875 C 75.042969 108.769531 80.628906 103.1875 87.53125 103.1875 L 100.023438 103.1875 C 106.902344 103.1875 112.511719 108.769531 112.511719 115.671875 L 112.511719 265.476562 C 112.511719 272.378906 106.902344 277.960938 100.023438 277.960938 " fill-opacity="1" fill-rule="nonzero"/><path fill="rgb(92.549133%, 32.159424%, 25.878906%)" d="M 62.550781 259.234375 L 50.0625 259.234375 C 43.160156 259.234375 37.570312 253.652344 37.570312 246.75 L 37.570312 140.636719 C 37.570312 133.738281 43.160156 128.15625 50.0625 128.15625 L 62.550781 128.15625 C 69.429688 128.15625 75.042969 133.738281 75.042969 140.636719 L 75.042969 246.75 C 75.042969 253.652344 69.429688 259.234375 62.550781 259.234375 " fill-opacity="1" fill-rule="nonzero"/><path fill="rgb(92.549133%, 32.159424%, 25.878906%)" d="M 274.878906 271.71875 L 287.371094 271.71875 C 294.25 271.71875 299.859375 266.136719 299.859375 259.234375 L 299.859375 109.429688 C 299.859375 102.527344 294.25 96.945312 287.371094 96.945312 L 274.878906 96.945312 C 267.976562 96.945312 262.390625 102.527344 262.390625 109.429688 L 262.390625 259.234375 C 262.390625 266.136719 267.976562 271.71875 274.878906 271.71875 " fill-opacity="1" fill-rule="nonzero"/><path fill="rgb(92.549133%, 32.159424%, 25.878906%)" d="M 312.351562 252.992188 L 324.839844 252.992188 C 331.71875 252.992188 337.332031 247.410156 337.332031 240.507812 L 337.332031 134.398438 C 337.332031 127.496094 331.71875 121.914062 324.839844 121.914062 L 312.351562 121.914062 C 305.445312 121.914062 299.859375 127.496094 299.859375 134.398438 L 299.859375 240.507812 C 299.859375 247.410156 305.445312 252.992188 312.351562 252.992188 " fill-opacity="1" fill-rule="nonzero"/><path fill="rgb(92.549133%, 32.159424%, 25.878906%)" d="M 337.332031 221.785156 L 368.554688 221.785156 L 368.554688 159.363281 L 337.332031 159.363281 L 337.332031 221.785156 " fill-opacity="1" fill-rule="nonzero"/><path fill="rgb(92.549133%, 32.159424%, 25.878906%)" d="M 37.570312 221.785156 L 6.347656 221.785156 L 6.347656 159.363281 L 37.570312 159.363281 L 37.570312 221.785156 " fill-opacity="1" fill-rule="nonzero"/><g clip-path="url(#clip-0)"><path fill="rgb(100%, 100%, 100%)" d="M 362.308594 215.542969 L 343.574219 215.542969 L 343.574219 165.605469 L 362.308594 165.605469 Z M 331.085938 240.507812 C 331.085938 243.949219 328.28125 246.75 324.839844 246.75 L 312.351562 246.75 C 308.910156 246.75 306.105469 243.949219 306.105469 240.507812 L 306.105469 134.398438 C 306.105469 130.957031 308.910156 128.15625 312.351562 128.15625 L 324.839844 128.15625 C 328.28125 128.15625 331.085938 130.957031 331.085938 134.398438 Z M 293.617188 259.234375 C 293.617188 262.671875 290.808594 265.476562 287.371094 265.476562 L 274.878906 265.476562 C 271.441406 265.476562 268.636719 262.671875 268.636719 259.234375 L 268.636719 109.429688 C 268.636719 105.992188 271.441406 103.1875 274.878906 103.1875 L 287.371094 103.1875 C 290.808594 103.1875 293.617188 105.992188 293.617188 109.429688 Z M 118.757812 215.542969 L 118.757812 165.605469 L 256.144531 165.605469 L 256.144531 215.542969 Z M 106.265625 265.476562 C 106.265625 268.914062 103.460938 271.71875 100.023438 271.71875 L 87.53125 271.71875 C 84.09375 271.71875 81.285156 268.914062 81.285156 265.476562 L 81.285156 115.671875 C 81.285156 112.234375 84.09375 109.429688 87.53125 109.429688 L 100.023438 109.429688 C 103.460938 109.429688 106.265625 112.234375 106.265625 115.671875 Z M 62.550781 252.992188 L 50.0625 252.992188 C 46.597656 252.992188 43.816406 250.1875 43.816406 246.75 L 43.816406 140.636719 C 43.816406 137.199219 46.597656 134.398438 50.0625 134.398438 L 62.550781 134.398438 C 65.992188 134.398438 68.796875 137.199219 68.796875 140.636719 L 68.796875 246.75 C 68.796875 250.1875 65.992188 252.992188 62.550781 252.992188 Z M 12.59375 215.542969 L 12.59375 165.605469 L 31.328125 165.605469 L 31.328125 215.542969 Z M 368.554688 153.121094 L 343.574219 153.121094 L 343.574219 134.398438 C 343.574219 124.058594 335.160156 115.671875 324.839844 115.671875 L 312.351562 115.671875 C 310.15625 115.671875 308.058594 116.132812 306.105469 116.816406 L 306.105469 109.429688 C 306.105469 99.089844 297.6875 90.703125 287.371094 90.703125 L 274.878906 90.703125 C 264.539062 90.703125 256.144531 99.089844 256.144531 109.429688 L 256.144531 153.121094 L 118.757812 153.121094 L 118.757812 115.671875 C 118.757812 105.332031 110.339844 96.945312 100.023438 96.945312 L 87.53125 96.945312 C 77.1875 96.945312 68.796875 105.332031 68.796875 115.671875 L 68.796875 123.058594 C 66.820312 122.375 64.746094 121.914062 62.550781 121.914062 L 50.0625 121.914062 C 39.71875 121.914062 31.328125 130.300781 31.328125 140.636719 L 31.328125 153.121094 L 6.347656 153.121094 C 2.882812 153.121094 0.101562 155.925781 0.101562 159.363281 L 0.101562 221.785156 C 0.101562 225.222656 2.882812 228.027344 6.347656 228.027344 L 31.328125 228.027344 L 31.328125 246.75 C 31.328125 257.089844 39.71875 265.476562 50.0625 265.476562 L 62.550781 265.476562 C 64.746094 265.476562 66.820312 265.015625 68.796875 264.332031 L 68.796875 265.476562 C 68.796875 275.816406 77.1875 284.203125 87.53125 284.203125 L 100.023438 284.203125 C 110.339844 284.203125 118.757812 275.816406 118.757812 265.476562 L 118.757812 228.027344 L 256.144531 228.027344 L 256.144531 259.234375 C 256.144531 269.574219 264.539062 277.960938 274.878906 277.960938 L 287.371094 277.960938 C 297.6875 277.960938 306.105469 269.574219 306.105469 259.234375 L 306.105469 258.089844 C 308.058594 258.773438 310.15625 259.234375 312.351562 259.234375 L 324.839844 259.234375 C 335.160156 259.234375 343.574219 250.847656 343.574219 240.507812 L 343.574219 228.027344 L 368.554688 228.027344 C 371.996094 228.027344 374.800781 225.222656 374.800781 221.785156 L 374.800781 159.363281 C 374.800781 155.925781 371.996094 153.121094 368.554688 153.121094 " fill-opacity="1" fill-rule="nonzero"/></g></svg>