<?xml version="1.0" encoding="UTF-8"?><svg xmlns="http://www.w3.org/2000/svg" xmlns:xlink="http://www.w3.org/1999/xlink" contentScriptType="text/ecmascript" width="97.5" zoomAndPan="magnify" contentStyleType="text/css" viewBox="0 0 97.5 30.000001" height="30.000001" preserveAspectRatio="xMidYMid meet" version="1.0"><defs><clipPath id="clip-0"><path d="M 27 7 L 95.683594 7 L 95.683594 22 L 27 22 Z M 27 7 " clip-rule="nonzero"/></clipPath><clipPath id="clip-1"><path d="M 1.332031 4.515625 L 12 4.515625 L 12 15 L 1.332031 15 Z M 1.332031 4.515625 " clip-rule="nonzero"/></clipPath><clipPath id="clip-2"><path d="M 12 4.515625 L 22 4.515625 L 22 15 L 12 15 Z M 12 4.515625 " clip-rule="nonzero"/></clipPath><clipPath id="clip-3"><path d="M 1.332031 15 L 12 15 L 12 24.941406 L 1.332031 24.941406 Z M 1.332031 15 " clip-rule="nonzero"/></clipPath><clipPath id="clip-4"><path d="M 12 15 L 22 15 L 22 24.941406 L 12 24.941406 Z M 12 15 " clip-rule="nonzero"/></clipPath></defs><g clip-path="url(#clip-0)"><path fill="rgb(82.749939%, 82.749939%, 82.749939%)" d="M 95.9375 13.753906 L 95.9375 12.070312 L 93.878906 12.070312 L 93.878906 9.453125 L 93.808594 9.476562 L 91.871094 10.078125 L 91.832031 10.089844 L 91.832031 12.070312 L 88.777344 12.070312 L 88.777344 10.96875 C 88.777344 10.453125 88.890625 10.058594 89.117188 9.796875 C 89.335938 9.539062 89.652344 9.40625 90.058594 9.40625 C 90.351562 9.40625 90.652344 9.476562 90.957031 9.613281 L 91.03125 9.648438 L 91.03125 7.875 L 90.996094 7.863281 C 90.710938 7.757812 90.328125 7.707031 89.851562 7.707031 C 89.25 7.707031 88.703125 7.839844 88.226562 8.101562 C 87.75 8.367188 87.375 8.742188 87.113281 9.21875 C 86.851562 9.695312 86.714844 10.246094 86.714844 10.855469 L 86.714844 12.070312 L 85.28125 12.070312 L 85.28125 13.753906 L 86.714844 13.753906 L 86.714844 20.839844 L 88.777344 20.839844 L 88.777344 13.753906 L 91.832031 13.753906 L 91.832031 18.257812 C 91.832031 20.113281 92.695312 21.050781 94.398438 21.050781 C 94.679688 21.050781 94.972656 21.019531 95.273438 20.953125 C 95.578125 20.886719 95.789062 20.820312 95.910156 20.75 L 95.9375 20.734375 L 95.9375 19.035156 L 95.855469 19.089844 C 95.742188 19.167969 95.605469 19.226562 95.441406 19.273438 C 95.277344 19.320312 95.140625 19.34375 95.035156 19.34375 C 94.632812 19.34375 94.339844 19.234375 94.15625 19.019531 C 93.96875 18.804688 93.878906 18.425781 93.878906 17.894531 L 93.878906 13.753906 Z M 80.683594 19.34375 C 79.933594 19.34375 79.34375 19.09375 78.929688 18.597656 C 78.507812 18.101562 78.296875 17.390625 78.296875 16.488281 C 78.296875 15.558594 78.507812 14.832031 78.929688 14.324219 C 79.34375 13.820312 79.925781 13.566406 80.664062 13.566406 C 81.378906 13.566406 81.945312 13.8125 82.355469 14.292969 C 82.761719 14.777344 82.972656 15.5 82.972656 16.4375 C 82.972656 17.390625 82.777344 18.121094 82.390625 18.613281 C 82.007812 19.097656 81.433594 19.34375 80.683594 19.34375 Z M 80.773438 11.859375 C 79.347656 11.859375 78.210938 12.28125 77.40625 13.117188 C 76.597656 13.953125 76.1875 15.109375 76.1875 16.558594 C 76.1875 17.929688 76.589844 19.035156 77.375 19.839844 C 78.164062 20.644531 79.234375 21.050781 80.5625 21.050781 C 81.945312 21.050781 83.058594 20.621094 83.867188 19.773438 C 84.671875 18.929688 85.082031 17.78125 85.082031 16.371094 C 85.082031 14.976562 84.699219 13.863281 83.941406 13.0625 C 83.183594 12.265625 82.117188 11.859375 80.773438 11.859375 Z M 72.867188 11.859375 C 71.894531 11.859375 71.09375 12.109375 70.480469 12.605469 C 69.863281 13.105469 69.546875 13.761719 69.546875 14.550781 C 69.546875 14.964844 69.617188 15.328125 69.75 15.640625 C 69.882812 15.953125 70.089844 16.226562 70.367188 16.457031 C 70.636719 16.683594 71.058594 16.921875 71.617188 17.164062 C 72.085938 17.363281 72.4375 17.527344 72.660156 17.65625 C 72.875 17.785156 73.03125 17.914062 73.117188 18.039062 C 73.203125 18.160156 73.246094 18.328125 73.246094 18.535156 C 73.246094 19.125 72.808594 19.410156 71.914062 19.410156 C 71.582031 19.410156 71.203125 19.34375 70.789062 19.203125 C 70.371094 19.066406 69.984375 18.867188 69.636719 18.609375 L 69.546875 18.546875 L 69.546875 20.558594 L 69.578125 20.574219 C 69.875 20.710938 70.238281 20.824219 70.671875 20.914062 C 71.105469 21.007812 71.496094 21.050781 71.839844 21.050781 C 72.894531 21.050781 73.742188 20.800781 74.359375 20.300781 C 74.980469 19.796875 75.296875 19.128906 75.296875 18.308594 C 75.296875 17.71875 75.128906 17.210938 74.792969 16.800781 C 74.460938 16.394531 73.882812 16.023438 73.078125 15.695312 C 72.4375 15.433594 72.023438 15.21875 71.855469 15.050781 C 71.691406 14.890625 71.609375 14.664062 71.609375 14.375 C 71.609375 14.121094 71.710938 13.914062 71.921875 13.75 C 72.132812 13.582031 72.429688 13.5 72.800781 13.5 C 73.140625 13.5 73.496094 13.554688 73.84375 13.660156 C 74.191406 13.769531 74.5 13.914062 74.753906 14.089844 L 74.839844 14.148438 L 74.839844 12.242188 L 74.808594 12.226562 C 74.570312 12.125 74.257812 12.035156 73.882812 11.964844 C 73.503906 11.894531 73.164062 11.859375 72.867188 11.859375 Z M 64.175781 19.34375 C 63.429688 19.34375 62.839844 19.09375 62.425781 18.597656 C 62.007812 18.101562 61.796875 17.390625 61.796875 16.488281 C 61.796875 15.558594 62.007812 14.832031 62.425781 14.324219 C 62.839844 13.820312 63.425781 13.566406 64.160156 13.566406 C 64.875 13.566406 65.445312 13.8125 65.851562 14.292969 C 66.261719 14.777344 66.46875 15.5 66.46875 16.4375 C 66.46875 17.390625 66.273438 18.121094 65.886719 18.613281 C 65.503906 19.097656 64.929688 19.34375 64.175781 19.34375 Z M 64.269531 11.859375 C 62.84375 11.859375 61.710938 12.28125 60.902344 13.117188 C 60.09375 13.953125 59.683594 15.109375 59.683594 16.558594 C 59.683594 17.929688 60.085938 19.035156 60.875 19.839844 C 61.660156 20.644531 62.734375 21.050781 64.0625 21.050781 C 65.445312 21.050781 66.554688 20.621094 67.363281 19.773438 C 68.167969 18.929688 68.578125 17.78125 68.578125 16.371094 C 68.578125 14.976562 68.195312 13.863281 67.4375 13.0625 C 66.679688 12.265625 65.613281 11.859375 64.269531 11.859375 Z M 56.558594 13.589844 L 56.558594 12.070312 L 54.519531 12.070312 L 54.519531 20.839844 L 56.558594 20.839844 L 56.558594 16.355469 C 56.558594 15.589844 56.726562 14.964844 57.0625 14.492188 C 57.398438 14.023438 57.839844 13.785156 58.378906 13.785156 C 58.566406 13.785156 58.769531 13.816406 58.992188 13.878906 C 59.214844 13.9375 59.371094 14.003906 59.464844 14.074219 L 59.554688 14.136719 L 59.554688 12.054688 L 59.519531 12.042969 C 59.328125 11.960938 59.0625 11.917969 58.722656 11.917969 C 58.210938 11.917969 57.753906 12.085938 57.363281 12.414062 C 57.019531 12.699219 56.769531 13.097656 56.578125 13.589844 Z M 50.878906 11.859375 C 49.941406 11.859375 49.109375 12.0625 48.402344 12.460938 C 47.691406 12.863281 47.144531 13.4375 46.769531 14.164062 C 46.398438 14.890625 46.210938 15.738281 46.210938 16.683594 C 46.210938 17.511719 46.390625 18.273438 46.753906 18.941406 C 47.117188 19.613281 47.628906 20.140625 48.277344 20.503906 C 48.925781 20.867188 49.671875 21.050781 50.5 21.050781 C 51.46875 21.050781 52.296875 20.855469 52.957031 20.46875 L 52.984375 20.453125 L 52.984375 18.5625 L 52.898438 18.628906 C 52.597656 18.847656 52.261719 19.027344 51.902344 19.152344 C 51.542969 19.28125 51.214844 19.34375 50.925781 19.34375 C 50.128906 19.34375 49.488281 19.089844 49.023438 18.59375 C 48.554688 18.089844 48.320312 17.390625 48.320312 16.507812 C 48.320312 15.617188 48.566406 14.898438 49.050781 14.367188 C 49.539062 13.835938 50.179688 13.566406 50.960938 13.566406 C 51.628906 13.566406 52.28125 13.796875 52.898438 14.25 L 52.984375 14.3125 L 52.984375 12.320312 L 52.957031 12.304688 C 52.722656 12.175781 52.40625 12.066406 52.015625 11.984375 C 51.621094 11.902344 51.242188 11.859375 50.878906 11.859375 Z M 44.808594 12.070312 L 42.773438 12.070312 L 42.773438 20.839844 L 44.808594 20.839844 Z M 43.808594 8.335938 C 43.476562 8.335938 43.183594 8.449219 42.945312 8.679688 C 42.703125 8.910156 42.582031 9.199219 42.582031 9.539062 C 42.582031 9.875 42.699219 10.160156 42.941406 10.382812 C 43.175781 10.605469 43.46875 10.71875 43.808594 10.71875 C 44.152344 10.71875 44.445312 10.605469 44.6875 10.382812 C 44.925781 10.160156 45.050781 9.875 45.050781 9.539062 C 45.050781 9.210938 44.929688 8.921875 44.695312 8.6875 C 44.460938 8.453125 44.164062 8.335938 43.808594 8.335938 Z M 38.730469 11.421875 L 38.730469 20.839844 L 40.808594 20.839844 L 40.808594 8.601562 L 37.933594 8.601562 L 34.28125 17.691406 L 30.734375 8.601562 L 27.742188 8.601562 L 27.742188 20.839844 L 29.695312 20.839844 L 29.695312 11.421875 L 29.761719 11.421875 L 33.507812 20.839844 L 34.976562 20.839844 L 38.664062 11.421875 Z M 38.730469 11.421875 " fill-opacity="1" fill-rule="nonzero"/></g><g clip-path="url(#clip-1)"><path fill="rgb(82.749939%, 82.749939%, 82.749939%)" d="M 1.558594 4.515625 L 11.132812 4.515625 L 11.132812 14.21875 L 1.558594 14.21875 Z M 1.558594 4.515625 " fill-opacity="1" fill-rule="nonzero"/></g><g clip-path="url(#clip-2)"><path fill="rgb(82.749939%, 82.749939%, 82.749939%)" d="M 12.128906 4.515625 L 21.703125 4.515625 L 21.703125 14.21875 L 12.128906 14.21875 Z M 12.128906 4.515625 " fill-opacity="1" fill-rule="nonzero"/></g><g clip-path="url(#clip-3)"><path fill="rgb(82.749939%, 82.749939%, 82.749939%)" d="M 1.558594 15.234375 L 11.132812 15.234375 L 11.132812 24.9375 L 1.558594 24.9375 Z M 1.558594 15.234375 " fill-opacity="1" fill-rule="nonzero"/></g><g clip-path="url(#clip-4)"><path fill="rgb(82.749939%, 82.749939%, 82.749939%)" d="M 12.128906 15.234375 L 21.703125 15.234375 L 21.703125 24.9375 L 12.128906 24.9375 Z M 12.128906 15.234375 " fill-opacity="1" fill-rule="nonzero"/></g></svg>