<?xml version="1.0" encoding="UTF-8"?><svg xmlns="http://www.w3.org/2000/svg" xmlns:xlink="http://www.w3.org/1999/xlink" contentScriptType="text/ecmascript" width="480" zoomAndPan="magnify" contentStyleType="text/css" viewBox="0 0 480 599.999999" height="599.999999" preserveAspectRatio="xMidYMid meet" version="1.0"><defs><clipPath id="clip-0"><path d="M 265 88 L 350 88 L 350 186 L 265 186 Z M 265 88 " clip-rule="nonzero"/></clipPath><clipPath id="clip-1"><path d="M 259.445312 137.140625 L 307.707031 88.882812 L 355.964844 137.140625 L 307.707031 185.402344 Z M 259.445312 137.140625 " clip-rule="nonzero"/></clipPath><clipPath id="clip-2"><path d="M 259.445312 137.140625 L 307.707031 88.882812 L 355.964844 137.140625 L 307.707031 185.402344 Z M 259.445312 137.140625 " clip-rule="nonzero"/></clipPath><clipPath id="clip-3"><path d="M 46 161 L 99 161 L 99 198 L 46 198 Z M 46 161 " clip-rule="nonzero"/></clipPath><clipPath id="clip-4"><path d="M 43.382812 176.832031 L 92.070312 157.191406 L 102.171875 182.230469 L 53.484375 201.871094 Z M 43.382812 176.832031 " clip-rule="nonzero"/></clipPath><clipPath id="clip-5"><path d="M 43.382812 176.832031 L 92.070312 157.191406 L 102.171875 182.230469 L 53.484375 201.871094 Z M 43.382812 176.832031 " clip-rule="nonzero"/></clipPath><clipPath id="clip-6"><path d="M 390 387 L 421 387 L 421 433 L 390 433 Z M 390 387 " clip-rule="nonzero"/></clipPath><clipPath id="clip-7"><path d="M 374.089844 370.835938 L 432.324219 403.457031 L 413.996094 436.175781 L 355.761719 403.554688 Z M 374.089844 370.835938 " clip-rule="nonzero"/></clipPath><clipPath id="clip-8"><path d="M 374.089844 370.835938 L 432.324219 403.457031 L 413.996094 436.175781 L 355.761719 403.554688 Z M 374.089844 370.835938 " clip-rule="nonzero"/></clipPath><clipPath id="clip-9"><path d="M 397.148438 383.753906 L 432.289062 403.4375 L 413.757812 436.519531 L 378.617188 416.835938 Z M 397.148438 383.753906 " clip-rule="nonzero"/></clipPath><clipPath id="clip-10"><path d="M 397.148438 383.753906 L 432.289062 403.4375 L 413.96875 436.144531 L 378.828125 416.460938 Z M 397.148438 383.753906 " clip-rule="nonzero"/></clipPath><clipPath id="clip-11"><path d="M 358 387 L 403 387 L 403 422 L 358 422 Z M 358 387 " clip-rule="nonzero"/></clipPath><clipPath id="clip-12"><path d="M 374.089844 370.835938 L 432.324219 403.457031 L 413.996094 436.175781 L 355.761719 403.554688 Z M 374.089844 370.835938 " clip-rule="nonzero"/></clipPath><clipPath id="clip-13"><path d="M 374.089844 370.835938 L 432.324219 403.457031 L 413.996094 436.175781 L 355.761719 403.554688 Z M 374.089844 370.835938 " clip-rule="nonzero"/></clipPath><clipPath id="clip-14"><path d="M 366.894531 383.765625 L 405.667969 405.488281 L 394.371094 425.660156 L 355.59375 403.9375 Z M 366.894531 383.765625 " clip-rule="nonzero"/></clipPath><clipPath id="clip-15"><path d="M 366.894531 383.765625 L 405.667969 405.488281 L 394.578125 425.28125 L 355.804688 403.5625 Z M 366.894531 383.765625 " clip-rule="nonzero"/></clipPath><clipPath id="clip-16"><path d="M 61 417 L 98 417 L 98 456 L 61 456 Z M 61 417 " clip-rule="nonzero"/></clipPath><clipPath id="clip-17"><path d="M 54.546875 422.558594 L 91.375 412.214844 L 101.71875 449.039062 L 64.894531 459.382812 Z M 54.546875 422.558594 " clip-rule="nonzero"/></clipPath><clipPath id="clip-18"><path d="M 54.546875 422.558594 L 91.375 412.214844 L 101.71875 449.039062 L 64.894531 459.382812 Z M 54.546875 422.558594 " clip-rule="nonzero"/></clipPath><clipPath id="clip-19"><path d="M 413 54 L 452 54 L 452 83 L 413 83 Z M 413 54 " clip-rule="nonzero"/></clipPath><clipPath id="clip-20"><path d="M 409.425781 62.796875 L 439.328125 45.585938 L 454.292969 71.585938 L 424.394531 88.796875 Z M 409.425781 62.796875 " clip-rule="nonzero"/></clipPath><clipPath id="clip-21"><path d="M 409.425781 62.796875 L 439.328125 45.585938 L 454.292969 71.585938 L 424.394531 88.796875 Z M 409.425781 62.796875 " clip-rule="nonzero"/></clipPath><clipPath id="clip-22"><path d="M 242 486 L 280 486 L 280 521 L 242 521 Z M 242 486 " clip-rule="nonzero"/></clipPath><clipPath id="clip-23"><path d="M 240 497.785156 L 274.523438 485.191406 L 284.550781 512.667969 L 250.023438 525.261719 Z M 240 497.785156 " clip-rule="nonzero"/></clipPath><clipPath id="clip-24"><path d="M 240 497.785156 L 274.523438 485.191406 L 284.550781 512.667969 L 250.023438 525.261719 Z M 240 497.785156 " clip-rule="nonzero"/></clipPath><clipPath id="clip-25"><path d="M 147 81 L 181 81 L 181 116 L 147 116 Z M 147 81 " clip-rule="nonzero"/></clipPath><clipPath id="clip-26"><path d="M 153.203125 79.78125 L 183.351562 88.90625 L 174.230469 119.054688 L 144.078125 109.929688 Z M 153.203125 79.78125 " clip-rule="nonzero"/></clipPath><clipPath id="clip-27"><path d="M 153.203125 79.78125 L 183.351562 88.90625 L 174.230469 119.054688 L 144.078125 109.929688 Z M 153.203125 79.78125 " clip-rule="nonzero"/></clipPath><clipPath id="clip-28"><path d="M 174 105 L 176 105 L 176 107 L 174 107 Z M 174 105 " clip-rule="nonzero"/></clipPath><clipPath id="clip-29"><path d="M 153.203125 79.78125 L 183.351562 88.90625 L 174.230469 119.054688 L 144.078125 109.929688 Z M 153.203125 79.78125 " clip-rule="nonzero"/></clipPath><clipPath id="clip-30"><path d="M 153.203125 79.78125 L 183.351562 88.90625 L 174.230469 119.054688 L 144.078125 109.929688 Z M 153.203125 79.78125 " clip-rule="nonzero"/></clipPath><clipPath id="clip-31"><path d="M 168 107 L 176 107 L 176 113 L 168 113 Z M 168 107 " clip-rule="nonzero"/></clipPath><clipPath id="clip-32"><path d="M 153.203125 79.78125 L 183.351562 88.90625 L 174.230469 119.054688 L 144.078125 109.929688 Z M 153.203125 79.78125 " clip-rule="nonzero"/></clipPath><clipPath id="clip-33"><path d="M 153.203125 79.78125 L 183.351562 88.90625 L 174.230469 119.054688 L 144.078125 109.929688 Z M 153.203125 79.78125 " clip-rule="nonzero"/></clipPath><clipPath id="clip-34"><path d="M 156 84 L 177 84 L 177 98 L 156 98 Z M 156 84 " clip-rule="nonzero"/></clipPath><clipPath id="clip-35"><path d="M 153.203125 79.78125 L 183.351562 88.90625 L 174.230469 119.054688 L 144.078125 109.929688 Z M 153.203125 79.78125 " clip-rule="nonzero"/></clipPath><clipPath id="clip-36"><path d="M 153.203125 79.78125 L 183.351562 88.90625 L 174.230469 119.054688 L 144.078125 109.929688 Z M 153.203125 79.78125 " clip-rule="nonzero"/></clipPath><clipPath id="clip-37"><path d="M 156 99 L 168 99 L 168 112 L 156 112 Z M 156 99 " clip-rule="nonzero"/></clipPath><clipPath id="clip-38"><path d="M 153.203125 79.78125 L 183.351562 88.90625 L 174.230469 119.054688 L 144.078125 109.929688 Z M 153.203125 79.78125 " clip-rule="nonzero"/></clipPath><clipPath id="clip-39"><path d="M 153.203125 79.78125 L 183.351562 88.90625 L 174.230469 119.054688 L 144.078125 109.929688 Z M 153.203125 79.78125 " clip-rule="nonzero"/></clipPath><clipPath id="clip-40"><path d="M 158 101 L 166 101 L 166 110 L 158 110 Z M 158 101 " clip-rule="nonzero"/></clipPath><clipPath id="clip-41"><path d="M 153.203125 79.78125 L 183.351562 88.90625 L 174.230469 119.054688 L 144.078125 109.929688 Z M 153.203125 79.78125 " clip-rule="nonzero"/></clipPath><clipPath id="clip-42"><path d="M 153.203125 79.78125 L 183.351562 88.90625 L 174.230469 119.054688 L 144.078125 109.929688 Z M 153.203125 79.78125 " clip-rule="nonzero"/></clipPath><clipPath id="clip-43"><path d="M 161 97 L 163 97 L 163 99 L 161 99 Z M 161 97 " clip-rule="nonzero"/></clipPath><clipPath id="clip-44"><path d="M 153.203125 79.78125 L 183.351562 88.90625 L 174.230469 119.054688 L 144.078125 109.929688 Z M 153.203125 79.78125 " clip-rule="nonzero"/></clipPath><clipPath id="clip-45"><path d="M 153.203125 79.78125 L 183.351562 88.90625 L 174.230469 119.054688 L 144.078125 109.929688 Z M 153.203125 79.78125 " clip-rule="nonzero"/></clipPath><clipPath id="clip-46"><path d="M 163 97 L 165 97 L 165 100 L 163 100 Z M 163 97 " clip-rule="nonzero"/></clipPath><clipPath id="clip-47"><path d="M 153.203125 79.78125 L 183.351562 88.90625 L 174.230469 119.054688 L 144.078125 109.929688 Z M 153.203125 79.78125 " clip-rule="nonzero"/></clipPath><clipPath id="clip-48"><path d="M 153.203125 79.78125 L 183.351562 88.90625 L 174.230469 119.054688 L 144.078125 109.929688 Z M 153.203125 79.78125 " clip-rule="nonzero"/></clipPath><clipPath id="clip-49"><path d="M 165 98 L 167 98 L 167 100 L 165 100 Z M 165 98 " clip-rule="nonzero"/></clipPath><clipPath id="clip-50"><path d="M 153.203125 79.78125 L 183.351562 88.90625 L 174.230469 119.054688 L 144.078125 109.929688 Z M 153.203125 79.78125 " clip-rule="nonzero"/></clipPath><clipPath id="clip-51"><path d="M 153.203125 79.78125 L 183.351562 88.90625 L 174.230469 119.054688 L 144.078125 109.929688 Z M 153.203125 79.78125 " clip-rule="nonzero"/></clipPath><clipPath id="clip-52"><path d="M 357.523438 253.816406 L 394.273438 253.816406 L 394.273438 289.816406 L 357.523438 289.816406 Z M 357.523438 253.816406 " clip-rule="nonzero"/></clipPath><clipPath id="clip-53"><path d="M 179 294 L 182 294 L 182 297 L 179 297 Z M 179 294 " clip-rule="nonzero"/></clipPath><clipPath id="clip-54"><path d="M 176.46875 289.574219 L 221.226562 302.183594 L 208.617188 346.941406 L 163.859375 334.332031 Z M 176.46875 289.574219 " clip-rule="nonzero"/></clipPath><clipPath id="clip-55"><path d="M 176.46875 289.574219 L 221.226562 302.183594 L 208.617188 346.941406 L 163.859375 334.332031 Z M 176.46875 289.574219 " clip-rule="nonzero"/></clipPath><clipPath id="clip-56"><path d="M 182 295 L 185 295 L 185 298 L 182 298 Z M 182 295 " clip-rule="nonzero"/></clipPath><clipPath id="clip-57"><path d="M 176.46875 289.574219 L 221.226562 302.183594 L 208.617188 346.941406 L 163.859375 334.332031 Z M 176.46875 289.574219 " clip-rule="nonzero"/></clipPath><clipPath id="clip-58"><path d="M 176.46875 289.574219 L 221.226562 302.183594 L 208.617188 346.941406 L 163.859375 334.332031 Z M 176.46875 289.574219 " clip-rule="nonzero"/></clipPath><clipPath id="clip-59"><path d="M 185 295 L 188 295 L 188 298 L 185 298 Z M 185 295 " clip-rule="nonzero"/></clipPath><clipPath id="clip-60"><path d="M 176.46875 289.574219 L 221.226562 302.183594 L 208.617188 346.941406 L 163.859375 334.332031 Z M 176.46875 289.574219 " clip-rule="nonzero"/></clipPath><clipPath id="clip-61"><path d="M 176.46875 289.574219 L 221.226562 302.183594 L 208.617188 346.941406 L 163.859375 334.332031 Z M 176.46875 289.574219 " clip-rule="nonzero"/></clipPath><clipPath id="clip-62"><path d="M 206 310 L 213 310 L 213 317 L 206 317 Z M 206 310 " clip-rule="nonzero"/></clipPath><clipPath id="clip-63"><path d="M 176.46875 289.574219 L 221.226562 302.183594 L 208.617188 346.941406 L 163.859375 334.332031 Z M 176.46875 289.574219 " clip-rule="nonzero"/></clipPath><clipPath id="clip-64"><path d="M 176.46875 289.574219 L 221.226562 302.183594 L 208.617188 346.941406 L 163.859375 334.332031 Z M 176.46875 289.574219 " clip-rule="nonzero"/></clipPath><clipPath id="clip-65"><path d="M 213 303 L 220 303 L 220 310 L 213 310 Z M 213 303 " clip-rule="nonzero"/></clipPath><clipPath id="clip-66"><path d="M 176.46875 289.574219 L 221.226562 302.183594 L 208.617188 346.941406 L 163.859375 334.332031 Z M 176.46875 289.574219 " clip-rule="nonzero"/></clipPath><clipPath id="clip-67"><path d="M 176.46875 289.574219 L 221.226562 302.183594 L 208.617188 346.941406 L 163.859375 334.332031 Z M 176.46875 289.574219 " clip-rule="nonzero"/></clipPath><clipPath id="clip-68"><path d="M 166 295 L 216 295 L 216 345 L 166 345 Z M 166 295 " clip-rule="nonzero"/></clipPath><clipPath id="clip-69"><path d="M 176.46875 289.574219 L 221.226562 302.183594 L 208.617188 346.941406 L 163.859375 334.332031 Z M 176.46875 289.574219 " clip-rule="nonzero"/></clipPath><clipPath id="clip-70"><path d="M 176.46875 289.574219 L 221.226562 302.183594 L 208.617188 346.941406 L 163.859375 334.332031 Z M 176.46875 289.574219 " clip-rule="nonzero"/></clipPath></defs><rect x="-48" width="576" fill="rgb(100%, 100%, 100%)" y="-60" height="719.999999" fill-opacity="1"/><rect x="-48" width="576" fill="rgb(100%, 100%, 100%)" y="-60" height="719.999999" fill-opacity="1"/><rect x="-48" width="576" fill="rgb(96.078491%, 96.078491%, 96.078491%)" y="-60" height="719.999999" fill-opacity="1"/><g clip-path="url(#clip-0)"><g clip-path="url(#clip-1)"><g clip-path="url(#clip-2)"><path fill="rgb(82.749939%, 82.749939%, 82.749939%)" d="M 265.476562 131.109375 L 271.511719 137.140625 L 277.542969 131.109375 L 271.511719 125.074219 Z M 277.542969 131.109375 L 283.574219 137.140625 L 289.609375 131.109375 L 283.574219 125.074219 Z M 283.574219 125.074219 L 289.609375 119.042969 L 283.574219 113.011719 L 277.542969 119.042969 Z M 289.609375 119.042969 L 295.640625 125.074219 L 301.671875 119.042969 L 295.640625 113.011719 Z M 295.640625 113.011719 L 301.671875 106.976562 L 295.640625 100.945312 L 289.609375 106.976562 Z M 301.671875 106.976562 L 307.707031 113.011719 L 313.738281 106.976562 L 307.707031 100.945312 Z M 307.707031 100.945312 L 313.738281 94.914062 L 307.707031 88.882812 L 301.671875 94.914062 Z M 313.738281 106.976562 L 319.769531 113.011719 L 325.800781 106.976562 L 319.769531 100.945312 Z M 319.769531 113.011719 L 313.738281 119.042969 L 319.769531 125.074219 L 325.800781 119.042969 Z M 325.800781 119.042969 L 331.835938 125.074219 L 337.867188 119.042969 L 331.835938 113.011719 Z M 331.835938 125.074219 L 325.800781 131.109375 L 331.835938 137.140625 L 337.867188 131.109375 Z M 337.867188 131.109375 L 343.898438 137.140625 L 349.933594 131.109375 L 343.898438 125.074219 Z M 343.898438 137.140625 L 337.867188 143.171875 L 343.898438 149.207031 L 349.933594 143.171875 Z M 337.867188 143.171875 L 331.835938 137.140625 L 325.800781 143.171875 L 331.835938 149.207031 Z M 331.835938 149.207031 L 325.800781 155.238281 L 331.835938 161.269531 L 337.867188 155.238281 Z M 325.800781 155.238281 L 319.769531 149.207031 L 313.738281 155.238281 L 319.769531 161.269531 Z M 319.769531 161.269531 L 313.738281 167.304688 L 319.769531 173.335938 L 325.800781 167.304688 Z M 313.738281 167.304688 L 307.707031 161.269531 L 301.671875 167.304688 L 307.707031 173.335938 Z M 307.707031 173.335938 L 301.671875 179.367188 L 307.707031 185.402344 L 313.738281 179.367188 Z M 301.671875 167.304688 L 295.640625 161.269531 L 289.609375 167.304688 L 295.640625 173.335938 Z M 295.640625 161.269531 L 301.671875 155.238281 L 295.640625 149.207031 L 289.609375 155.238281 Z M 289.609375 155.238281 L 283.574219 149.207031 L 277.542969 155.238281 L 283.574219 161.269531 Z M 283.574219 149.207031 L 289.609375 143.171875 L 283.574219 137.140625 L 277.542969 143.171875 Z M 277.542969 143.171875 L 271.511719 137.140625 L 265.476562 143.171875 L 271.511719 149.207031 Z M 289.609375 143.171875 L 295.640625 149.207031 L 301.671875 143.171875 L 295.640625 137.140625 Z M 295.640625 137.140625 L 301.671875 131.109375 L 295.640625 125.074219 L 289.609375 131.109375 Z M 301.671875 131.109375 L 307.707031 137.140625 L 313.738281 131.109375 L 307.707031 125.074219 Z M 307.707031 125.074219 L 313.738281 119.042969 L 307.707031 113.011719 L 301.671875 119.042969 Z M 313.738281 131.109375 L 319.769531 137.140625 L 325.800781 131.109375 L 319.769531 125.074219 Z M 319.769531 137.140625 L 313.738281 143.171875 L 319.769531 149.207031 L 325.800781 143.171875 Z M 313.738281 143.171875 L 307.707031 137.140625 L 301.671875 143.171875 L 307.707031 149.207031 Z M 307.707031 149.207031 L 301.671875 155.238281 L 307.707031 161.269531 L 313.738281 155.238281 Z M 307.707031 149.207031 " fill-opacity="1" fill-rule="nonzero"/></g></g></g><g clip-path="url(#clip-3)"><g clip-path="url(#clip-4)"><g clip-path="url(#clip-5)"><path fill="rgb(82.749939%, 82.749939%, 82.749939%)" d="M 96.941406 174.007812 L 94.511719 174.992188 L 91.902344 168.527344 L 94.335938 167.546875 Z M 94.191406 178.875 C 94.371094 179.320312 94.152344 179.828125 93.707031 180.011719 L 92.085938 180.664062 C 91.640625 180.84375 91.128906 180.628906 90.949219 180.183594 L 85.410156 166.453125 C 85.230469 166.007812 85.449219 165.496094 85.894531 165.316406 L 87.515625 164.664062 C 87.960938 164.484375 88.472656 164.699219 88.652344 165.144531 Z M 90.304688 183.261719 C 90.484375 183.707031 90.265625 184.214844 89.820312 184.394531 L 88.199219 185.050781 C 87.753906 185.230469 87.242188 185.011719 87.0625 184.570312 L 79.242188 165.183594 C 79.0625 164.738281 79.28125 164.230469 79.726562 164.046875 L 81.347656 163.394531 C 81.796875 163.214844 82.304688 163.429688 82.484375 163.875 Z M 65.324219 186.761719 L 62.71875 180.300781 L 80.554688 173.105469 L 83.160156 179.570312 Z M 66.3125 193.878906 C 66.492188 194.324219 66.273438 194.832031 65.828125 195.015625 L 64.207031 195.667969 C 63.757812 195.847656 63.25 195.632812 63.070312 195.1875 L 55.25 175.800781 C 55.070312 175.355469 55.285156 174.847656 55.734375 174.667969 L 57.355469 174.011719 C 57.800781 173.832031 58.3125 174.050781 58.492188 174.492188 Z M 59.984375 194.554688 L 58.363281 195.207031 C 57.917969 195.386719 57.40625 195.171875 57.226562 194.726562 L 51.6875 180.996094 C 51.507812 180.550781 51.726562 180.039062 52.171875 179.859375 L 53.792969 179.207031 C 54.242188 179.027344 54.75 179.242188 54.929688 179.6875 L 60.46875 193.417969 C 60.648438 193.863281 60.433594 194.371094 59.984375 194.554688 Z M 51.542969 192.324219 L 48.9375 185.859375 L 51.371094 184.878906 L 53.976562 191.339844 Z M 94.496094 165.605469 L 91.25 166.914062 L 90.273438 164.488281 C 89.734375 163.152344 88.207031 162.507812 86.863281 163.046875 L 85.242188 163.703125 C 84.957031 163.816406 84.714844 163.984375 84.492188 164.175781 L 84.105469 163.222656 C 83.566406 161.882812 82.039062 161.238281 80.695312 161.777344 L 79.074219 162.433594 C 77.734375 162.976562 77.082031 164.5 77.621094 165.835938 L 79.902344 171.492188 L 62.066406 178.6875 L 60.113281 173.839844 C 59.574219 172.5 58.046875 171.855469 56.703125 172.398438 L 55.082031 173.050781 C 53.738281 173.59375 53.085938 175.117188 53.628906 176.457031 L 54.011719 177.410156 C 53.722656 177.425781 53.425781 177.476562 53.144531 177.589844 L 51.519531 178.246094 C 50.179688 178.785156 49.527344 180.3125 50.066406 181.648438 L 50.71875 183.265625 L 47.476562 184.574219 C 47.03125 184.753906 46.8125 185.261719 46.992188 185.707031 L 50.25 193.785156 C 50.429688 194.230469 50.9375 194.445312 51.386719 194.265625 L 54.628906 192.957031 L 55.605469 195.378906 C 56.144531 196.71875 57.671875 197.363281 59.015625 196.824219 L 60.636719 196.167969 C 60.921875 196.054688 61.167969 195.882812 61.386719 195.691406 L 61.449219 195.839844 C 61.988281 197.179688 63.515625 197.824219 64.855469 197.285156 L 66.476562 196.628906 C 67.820312 196.085938 68.472656 194.5625 67.933594 193.226562 L 65.976562 188.378906 L 83.8125 181.183594 L 85.441406 185.222656 C 85.980469 186.5625 87.507812 187.207031 88.851562 186.664062 L 90.472656 186.011719 C 91.816406 185.46875 92.464844 183.945312 91.925781 182.605469 L 91.867188 182.457031 C 92.160156 182.441406 92.453125 182.394531 92.738281 182.28125 L 94.359375 181.625 C 95.703125 181.082031 96.351562 179.558594 95.8125 178.222656 L 95.160156 176.605469 L 98.402344 175.296875 C 98.851562 175.117188 99.070312 174.609375 98.890625 174.164062 L 95.628906 166.085938 C 95.453125 165.640625 94.941406 165.425781 94.496094 165.605469 " fill-opacity="1" fill-rule="nonzero"/></g></g></g><g clip-path="url(#clip-6)"><g clip-path="url(#clip-7)"><g clip-path="url(#clip-8)"><g clip-path="url(#clip-9)"><g clip-path="url(#clip-10)"><path fill="rgb(82.749939%, 82.749939%, 82.749939%)" d="M 416.046875 427.371094 L 408.351562 430.046875 C 408.066406 430.148438 407.757812 430.128906 407.484375 430 C 407.214844 429.863281 407.007812 429.636719 406.910156 429.351562 C 406.746094 428.878906 406.925781 428.359375 407.332031 428.078125 L 415.617188 425.195312 C 416.113281 425.160156 416.578125 425.457031 416.746094 425.925781 C 416.949219 426.515625 416.636719 427.164062 416.046875 427.371094 Z M 401.777344 425.78125 L 401.371094 424.613281 C 401.042969 423.675781 401.542969 422.640625 402.484375 422.316406 L 415.828125 417.671875 C 416.28125 417.511719 416.773438 417.539062 417.207031 417.75 C 417.242188 417.769531 417.277344 417.785156 417.308594 417.804688 C 417.695312 418.019531 417.984375 418.363281 418.132812 418.78125 C 418.128906 418.785156 418.128906 418.785156 418.128906 418.785156 L 418.535156 419.949219 C 418.695312 420.402344 418.667969 420.894531 418.457031 421.328125 C 418.25 421.761719 417.882812 422.089844 417.425781 422.246094 L 404.082031 426.890625 C 403.140625 427.21875 402.105469 426.71875 401.777344 425.78125 Z M 401.597656 402.539062 L 404.203125 401.632812 L 409.738281 417.472656 L 407.128906 418.378906 Z M 395.503906 402.339844 C 395.050781 402.5 394.558594 402.472656 394.125 402.261719 C 393.691406 402.054688 393.363281 401.683594 393.203125 401.230469 L 392.796875 400.066406 C 392.46875 399.125 392.964844 398.09375 393.90625 397.765625 L 407.25 393.125 C 407.707031 392.964844 408.195312 392.992188 408.632812 393.203125 C 409.066406 393.414062 409.394531 393.78125 409.550781 394.234375 L 409.957031 395.398438 C 410.289062 396.339844 409.789062 397.371094 408.847656 397.699219 Z M 395.285156 392.644531 L 402.980469 389.964844 C 403.574219 389.761719 404.21875 390.074219 404.425781 390.664062 C 404.589844 391.132812 404.410156 391.652344 404.003906 391.9375 L 395.710938 394.820312 C 395.21875 394.851562 394.753906 394.554688 394.589844 394.085938 C 394.488281 393.800781 394.503906 393.492188 394.636719 393.21875 C 394.769531 392.949219 395 392.742188 395.285156 392.644531 Z M 418.8125 425.207031 C 418.6875 424.855469 418.503906 424.535156 418.277344 424.25 C 420.269531 423.476562 421.3125 421.261719 420.601562 419.226562 L 420.195312 418.066406 C 419.84375 417.058594 419.121094 416.246094 418.160156 415.78125 C 417.199219 415.316406 416.113281 415.253906 415.105469 415.605469 L 411.804688 416.753906 L 406.269531 400.914062 L 409.570312 399.765625 C 411.652344 399.042969 412.753906 396.757812 412.027344 394.679688 L 411.621094 393.515625 C 411.269531 392.507812 410.554688 391.703125 409.582031 391.234375 C 408.664062 390.789062 407.640625 390.722656 406.671875 391.023438 C 406.671875 390.660156 406.617188 390.296875 406.492188 389.945312 C 405.886719 388.214844 403.988281 387.296875 402.257812 387.898438 L 394.5625 390.574219 C 393.722656 390.867188 393.050781 391.46875 392.664062 392.265625 C 392.28125 393.066406 392.226562 393.96875 392.523438 394.804688 C 392.644531 395.15625 392.832031 395.476562 393.058594 395.757812 C 391.066406 396.53125 390.019531 398.75 390.730469 400.785156 L 391.136719 401.949219 C 391.472656 402.90625 392.136719 403.65625 392.957031 404.117188 C 393.921875 404.65625 395.105469 404.796875 396.226562 404.410156 L 399.527344 403.257812 L 405.0625 419.101562 L 401.761719 420.25 C 399.679688 420.972656 398.578125 423.253906 399.308594 425.332031 L 399.710938 426.496094 C 400.046875 427.453125 400.710938 428.203125 401.53125 428.664062 C 402.457031 429.183594 403.582031 429.320312 404.660156 428.988281 C 404.660156 429.351562 404.71875 429.714844 404.839844 430.070312 C 405.109375 430.84375 405.644531 431.476562 406.351562 431.871094 C 406.410156 431.90625 406.472656 431.9375 406.535156 431.96875 C 407.332031 432.355469 408.234375 432.40625 409.074219 432.113281 L 416.769531 429.4375 C 418.5 428.832031 419.414062 426.9375 418.8125 425.207031 " fill-opacity="1" fill-rule="nonzero"/></g></g></g></g></g><g clip-path="url(#clip-11)"><g clip-path="url(#clip-12)"><g clip-path="url(#clip-13)"><g clip-path="url(#clip-14)"><g clip-path="url(#clip-15)"><path fill="rgb(82.749939%, 82.749939%, 82.749939%)" d="M 395.714844 417.914062 C 395.410156 418.457031 394.71875 418.652344 394.171875 418.34375 C 393.738281 418.101562 393.527344 417.59375 393.644531 417.113281 L 397.933594 409.460938 C 398.28125 409.109375 398.824219 409.019531 399.261719 409.265625 C 399.804688 409.570312 400 410.261719 399.695312 410.808594 Z M 372.414062 401.773438 L 373.761719 399.367188 L 388.414062 407.574219 L 387.0625 409.980469 Z M 367.726562 405.660156 C 367.242188 406.527344 366.136719 406.839844 365.265625 406.351562 L 364.191406 405.75 C 363.320312 405.261719 363.007812 404.15625 363.496094 403.289062 L 370.398438 390.96875 C 370.882812 390.101562 371.988281 389.789062 372.859375 390.277344 L 373.933594 390.878906 C 374.804688 391.367188 375.113281 392.472656 374.628906 393.339844 Z M 361.566406 400.078125 C 361.019531 399.773438 360.824219 399.082031 361.128906 398.539062 L 365.109375 391.433594 C 365.414062 390.886719 366.105469 390.691406 366.652344 391 C 367.089844 391.242188 367.296875 391.753906 367.179688 392.234375 L 362.894531 399.882812 C 362.546875 400.234375 362 400.324219 361.566406 400.078125 Z M 400.328125 407.355469 C 399.988281 407.164062 399.621094 407.042969 399.246094 406.980469 C 399.867188 405.285156 399.4375 403.355469 398.09375 402.078125 C 397.65625 401.65625 396.960938 401.679688 396.546875 402.117188 C 396.128906 402.554688 396.148438 403.246094 396.585938 403.664062 C 397.386719 404.421875 397.570312 405.628906 397.03125 406.589844 L 390.726562 417.84375 C 390.074219 419.007812 388.59375 419.421875 387.429688 418.769531 C 386.871094 418.457031 386.449219 417.921875 386.28125 417.316406 C 386.105469 416.6875 386.183594 416.03125 386.496094 415.472656 L 392.800781 404.21875 C 392.980469 403.898438 393.25 403.613281 393.574219 403.390625 C 394.078125 403.050781 394.203125 402.371094 393.863281 401.871094 C 393.523438 401.367188 392.84375 401.242188 392.34375 401.582031 C 391.738281 401.992188 391.234375 402.535156 390.890625 403.148438 L 389.480469 405.664062 L 374.832031 397.457031 L 376.539062 394.410156 C 377.847656 392.117188 377.40625 389.28125 375.003906 388.972656 L 373.925781 388.371094 C 372.046875 387.316406 369.683594 387.957031 368.570312 389.78125 C 368.332031 389.507812 368.050781 389.273438 367.722656 389.089844 C 366.121094 388.195312 364.09375 388.765625 363.199219 390.363281 L 359.21875 397.46875 C 358.324219 399.066406 358.894531 401.089844 360.496094 401.988281 C 360.824219 402.171875 361.171875 402.289062 361.527344 402.351562 C 360.554688 404.253906 361.242188 406.605469 363.121094 407.65625 L 364.199219 408.261719 C 366.121094 409.335938 368.5625 408.652344 369.636719 406.730469 L 371.34375 403.683594 L 385.996094 411.890625 L 384.585938 414.402344 C 383.992188 415.464844 383.84375 416.703125 384.167969 417.902344 C 384.5 419.070312 385.300781 420.085938 386.359375 420.679688 C 388.359375 421.800781 390.832031 421.253906 392.210938 419.519531 C 392.457031 419.808594 392.757812 420.058594 393.105469 420.253906 C 394.703125 421.148438 396.730469 420.578125 397.625 418.984375 L 401.605469 411.878906 C 402.5 410.28125 401.925781 408.25 400.328125 407.355469 " fill-opacity="1" fill-rule="nonzero"/></g></g></g></g></g><g clip-path="url(#clip-16)"><g clip-path="url(#clip-17)"><g clip-path="url(#clip-18)"><path fill="rgb(82.749939%, 82.749939%, 82.749939%)" d="M 73.015625 417.414062 C 70.71875 418.0625 69.367188 420.46875 70.011719 422.765625 C 70.65625 425.058594 73.0625 426.410156 75.359375 425.765625 C 77.65625 425.121094 79.007812 422.714844 78.363281 420.417969 C 77.71875 418.121094 75.3125 416.769531 73.015625 417.414062 Z M 73.484375 419.085938 C 74.878906 418.695312 76.300781 419.492188 76.691406 420.886719 C 77.082031 422.28125 76.285156 423.703125 74.890625 424.097656 C 73.496094 424.488281 72.074219 423.6875 71.683594 422.292969 C 71.289062 420.902344 72.089844 419.476562 73.484375 419.085938 Z M 71.835938 427.65625 C 69.3125 428.367188 67.824219 431.015625 68.535156 433.539062 L 70.996094 442.308594 L 67.65625 443.246094 L 66.25 438.234375 C 66.1875 438 66.050781 437.820312 65.835938 437.703125 C 65.621094 437.582031 65.398438 437.558594 65.164062 437.628906 C 64.933594 437.695312 64.761719 437.835938 64.648438 438.046875 C 64.535156 438.253906 64.511719 438.476562 64.578125 438.703125 L 67.863281 450.394531 C 67.925781 450.628906 68.0625 450.804688 68.273438 450.925781 C 68.480469 451.046875 68.703125 451.074219 68.9375 451.007812 C 69.167969 450.941406 69.34375 450.804688 69.460938 450.589844 C 69.578125 450.378906 69.601562 450.15625 69.535156 449.925781 L 68.125 444.914062 L 71.625 443.933594 C 72.242188 444.800781 73.359375 445.246094 74.441406 444.945312 C 75.519531 444.640625 76.242188 443.679688 76.320312 442.613281 L 83.3125 440.648438 C 83.933594 441.519531 85.050781 441.964844 86.132812 441.660156 C 87.210938 441.355469 87.933594 440.394531 88.011719 439.332031 L 91.507812 438.347656 L 92.914062 443.359375 C 92.976562 443.59375 93.113281 443.769531 93.324219 443.890625 C 93.53125 444.007812 93.753906 444.035156 93.988281 443.96875 C 94.21875 443.90625 94.394531 443.765625 94.511719 443.554688 C 94.628906 443.34375 94.652344 443.121094 94.585938 442.890625 L 91.300781 431.199219 C 91.238281 430.960938 91.101562 430.785156 90.886719 430.664062 C 90.671875 430.546875 90.449219 430.519531 90.214844 430.589844 C 89.984375 430.660156 89.8125 430.796875 89.699219 431.007812 C 89.585938 431.21875 89.5625 431.4375 89.628906 431.667969 L 91.039062 436.679688 L 87.699219 437.617188 L 85.234375 428.847656 C 84.527344 426.324219 81.878906 424.835938 79.351562 425.546875 Z M 72.304688 429.328125 L 79.820312 427.214844 C 81.441406 426.761719 83.109375 427.699219 83.566406 429.316406 L 86.261719 438.921875 C 86.394531 439.390625 86.132812 439.855469 85.660156 439.988281 C 85.191406 440.121094 84.726562 439.859375 84.59375 439.390625 L 82.246094 431.039062 C 82.183594 430.804688 82.046875 430.628906 81.839844 430.507812 C 81.628906 430.386719 81.40625 430.363281 81.175781 430.425781 C 80.941406 430.492188 80.765625 430.628906 80.648438 430.84375 C 80.53125 431.054688 80.507812 431.277344 80.578125 431.507812 L 82.6875 439.023438 L 76.007812 440.898438 L 73.898438 433.382812 C 73.835938 433.152344 73.699219 432.972656 73.488281 432.855469 C 73.277344 432.734375 73.054688 432.707031 72.824219 432.773438 C 72.589844 432.835938 72.414062 432.976562 72.300781 433.1875 C 72.183594 433.398438 72.15625 433.621094 72.226562 433.855469 L 74.570312 442.203125 C 74.703125 442.675781 74.445312 443.140625 73.972656 443.273438 C 73.5 443.40625 73.035156 443.144531 72.902344 442.671875 L 70.203125 433.070312 C 69.75 431.453125 70.6875 429.78125 72.304688 429.328125 Z M 61.824219 438.566406 C 61.59375 438.632812 61.421875 438.773438 61.308594 438.984375 C 61.195312 439.195312 61.171875 439.414062 61.238281 439.644531 L 62.648438 444.652344 L 61.8125 444.886719 C 61.578125 444.949219 61.402344 445.085938 61.28125 445.296875 C 61.160156 445.507812 61.132812 445.726562 61.199219 445.960938 C 61.265625 446.191406 61.402344 446.367188 61.617188 446.484375 C 61.828125 446.601562 62.050781 446.625 62.28125 446.558594 L 63.117188 446.324219 L 64.523438 451.332031 C 64.585938 451.566406 64.722656 451.742188 64.933594 451.863281 C 65.140625 451.984375 65.363281 452.011719 65.597656 451.945312 C 65.828125 451.878906 66.003906 451.742188 66.121094 451.53125 C 66.238281 451.316406 66.261719 451.097656 66.195312 450.863281 L 64.589844 445.160156 C 64.582031 445.0625 64.554688 444.972656 64.515625 444.886719 L 62.910156 439.171875 C 62.847656 438.9375 62.707031 438.757812 62.496094 438.640625 C 62.28125 438.519531 62.058594 438.496094 61.824219 438.566406 Z M 93.554688 429.652344 C 93.324219 429.71875 93.152344 429.859375 93.039062 430.070312 C 92.925781 430.28125 92.902344 430.5 92.972656 430.730469 L 94.574219 436.433594 C 94.582031 436.53125 94.609375 436.621094 94.648438 436.707031 L 96.253906 442.421875 C 96.316406 442.652344 96.453125 442.832031 96.664062 442.949219 C 96.875 443.070312 97.09375 443.097656 97.328125 443.03125 C 97.5625 442.96875 97.734375 442.828125 97.851562 442.617188 C 97.96875 442.40625 97.992188 442.183594 97.925781 441.949219 L 96.515625 436.941406 L 97.351562 436.707031 C 97.585938 436.644531 97.761719 436.507812 97.882812 436.296875 C 98.003906 436.085938 98.03125 435.867188 97.964844 435.632812 C 97.898438 435.398438 97.761719 435.226562 97.550781 435.109375 C 97.335938 434.992188 97.117188 434.96875 96.882812 435.035156 L 96.046875 435.269531 L 94.640625 430.261719 C 94.578125 430.023438 94.441406 429.847656 94.226562 429.726562 C 94.011719 429.605469 93.789062 429.582031 93.554688 429.652344 Z M 77.917969 443.96875 L 78.488281 453.003906 C 78.519531 453.472656 78.117188 453.898438 77.675781 453.925781 C 77.199219 453.957031 76.785156 453.59375 76.757812 453.113281 L 76.304688 445.917969 C 75.894531 446.222656 75.429688 446.46875 74.910156 446.613281 C 74.808594 446.640625 74.710938 446.644531 74.609375 446.667969 L 75.023438 453.222656 C 75.070312 453.917969 75.378906 454.550781 75.898438 455.011719 C 76.421875 455.472656 77.089844 455.699219 77.785156 455.65625 C 77.964844 455.644531 78.148438 455.613281 78.328125 455.5625 C 79.5 455.234375 80.292969 454.113281 80.21875 452.898438 L 79.628906 443.488281 Z M 80.945312 443.117188 L 85.339844 451.457031 C 85.90625 452.535156 87.171875 453.078125 88.34375 452.75 C 88.523438 452.699219 88.695312 452.632812 88.855469 452.546875 C 89.46875 452.222656 89.921875 451.679688 90.125 451.015625 C 90.332031 450.351562 90.269531 449.648438 89.945312 449.03125 L 86.878906 443.21875 C 86.785156 443.253906 86.699219 443.300781 86.601562 443.328125 C 86.078125 443.476562 85.558594 443.507812 85.046875 443.460938 L 88.410156 449.839844 C 88.632812 450.265625 88.46875 450.789062 88.046875 451.011719 C 87.65625 451.21875 87.09375 451.066406 86.875 450.648438 L 82.652344 442.636719 Z M 80.945312 443.117188 " fill-opacity="1" fill-rule="nonzero"/></g></g></g><g clip-path="url(#clip-19)"><g clip-path="url(#clip-20)"><g clip-path="url(#clip-21)"><path fill="rgb(82.749939%, 82.749939%, 82.749939%)" d="M 449.035156 63.898438 L 447.167969 64.972656 L 446.808594 64.351562 C 446.222656 63.328125 444.902344 62.976562 443.871094 63.570312 C 443.65625 63.695312 443.464844 63.855469 443.3125 64.035156 L 443.25 63.929688 C 442.660156 62.90625 441.34375 62.554688 440.3125 63.148438 C 439.28125 63.742188 438.925781 65.058594 439.511719 66.082031 L 440.9375 68.558594 L 437.671875 70.4375 C 437.515625 68.992188 437.058594 67.578125 436.308594 66.277344 C 434.882812 63.796875 432.566406 62.023438 429.792969 61.285156 C 429.296875 61.152344 428.796875 61.058594 428.296875 60.996094 L 425.445312 56.046875 C 424.855469 55.023438 423.539062 54.671875 422.507812 55.265625 L 415.035156 59.566406 C 414.003906 60.160156 413.644531 61.476562 414.234375 62.5 L 417.085938 67.449219 C 416.886719 67.914062 416.71875 68.394531 416.582031 68.890625 C 415.828125 71.660156 416.199219 74.550781 417.625 77.03125 C 419.273438 79.894531 422.101562 81.804688 425.386719 82.277344 C 425.546875 82.300781 425.710938 82.269531 425.851562 82.1875 L 428.753906 80.519531 L 430.621094 79.441406 L 430.976562 80.0625 C 431.566406 81.085938 432.882812 81.433594 433.914062 80.84375 C 434.132812 80.714844 434.320312 80.558594 434.476562 80.375 L 434.539062 80.484375 C 435.128906 81.507812 436.445312 81.859375 437.476562 81.265625 C 438.503906 80.671875 438.863281 79.355469 438.273438 78.332031 L 436.847656 75.855469 L 443.078125 72.273438 L 444.5 74.746094 C 445.089844 75.773438 446.410156 76.121094 447.4375 75.53125 C 448.46875 74.9375 448.828125 73.621094 448.238281 72.597656 L 448.175781 72.488281 C 448.410156 72.445312 448.644531 72.363281 448.863281 72.238281 C 449.890625 71.644531 450.25 70.328125 449.660156 69.304688 L 449.304688 68.6875 L 451.171875 67.613281 C 451.515625 67.414062 451.636719 66.976562 451.441406 66.632812 L 450.015625 64.15625 C 449.816406 63.816406 449.378906 63.699219 449.035156 63.898438 Z M 415.480469 61.78125 C 415.285156 61.441406 415.402344 61.003906 415.75 60.804688 L 423.222656 56.503906 C 423.566406 56.304688 424.003906 56.421875 424.199219 56.765625 L 426.597656 60.929688 C 426.332031 60.9375 426.066406 60.957031 425.804688 60.988281 L 424.289062 58.359375 C 423.898438 57.679688 423.019531 57.445312 422.332031 57.839844 L 417.351562 60.707031 C 416.664062 61.101562 416.425781 61.980469 416.816406 62.664062 L 418.328125 65.289062 C 418.171875 65.503906 418.019531 65.722656 417.878906 65.945312 Z M 424.304688 61.265625 C 423.378906 61.507812 422.476562 61.878906 421.621094 62.367188 C 420.769531 62.859375 419.996094 63.453125 419.324219 64.136719 L 418.0625 61.945312 L 423.042969 59.078125 Z M 418.871094 76.316406 C 416.316406 71.878906 417.871094 66.175781 422.335938 63.605469 C 426.800781 61.039062 432.507812 62.558594 435.0625 66.996094 C 435.820312 68.3125 436.234375 69.761719 436.292969 71.234375 L 434.710938 72.144531 L 433.285156 69.664062 C 432.695312 68.640625 431.378906 68.292969 430.347656 68.882812 C 429.316406 69.476562 428.960938 70.792969 429.546875 71.816406 L 429.609375 71.921875 C 429.375 71.96875 429.144531 72.050781 428.925781 72.175781 C 427.894531 72.769531 427.539062 74.085938 428.125 75.109375 L 428.484375 75.726562 L 426.613281 76.804688 C 426.269531 77 426.152344 77.4375 426.347656 77.78125 L 427.417969 79.636719 L 425.359375 80.824219 C 422.613281 80.359375 420.257812 78.726562 418.871094 76.316406 Z M 428.664062 78.921875 C 428.820312 78.828125 428.945312 78.675781 429 78.484375 C 429.101562 78.105469 428.878906 77.710938 428.492188 77.609375 C 428.304688 77.558594 428.109375 77.589844 427.949219 77.679688 L 429.195312 76.964844 L 429.910156 78.203125 Z M 433.203125 79.605469 C 432.859375 79.800781 432.417969 79.683594 432.222656 79.34375 L 429.371094 74.390625 C 429.175781 74.050781 429.292969 73.613281 429.636719 73.414062 C 429.980469 73.214844 430.421875 73.332031 430.617188 73.671875 L 433.46875 78.625 C 433.664062 78.96875 433.542969 79.40625 433.203125 79.605469 Z M 437.027344 79.050781 C 437.226562 79.390625 437.105469 79.828125 436.761719 80.027344 C 436.417969 80.222656 435.980469 80.109375 435.78125 79.765625 L 434.714844 77.910156 L 431.863281 72.957031 L 430.792969 71.097656 C 430.597656 70.757812 430.71875 70.320312 431.0625 70.121094 C 431.402344 69.925781 431.84375 70.042969 432.039062 70.382812 Z M 436.136719 74.617188 L 435.421875 73.378906 L 441.652344 69.796875 L 442.363281 71.035156 Z M 446.992188 73.3125 C 447.191406 73.65625 447.070312 74.09375 446.726562 74.289062 C 446.382812 74.488281 445.945312 74.371094 445.75 74.03125 L 440.757812 65.363281 C 440.5625 65.023438 440.683594 64.585938 441.023438 64.386719 C 441.367188 64.1875 441.808594 64.304688 442.003906 64.648438 L 443.074219 66.503906 L 445.925781 71.457031 Z M 448.414062 70.023438 C 448.613281 70.363281 448.492188 70.800781 448.148438 71 C 447.804688 71.199219 447.367188 71.082031 447.167969 70.738281 L 444.320312 65.785156 C 444.121094 65.445312 444.242188 65.007812 444.585938 64.808594 C 444.929688 64.613281 445.367188 64.730469 445.566406 65.070312 Z M 448.59375 67.449219 L 447.878906 66.210938 L 449.125 65.492188 C 448.964844 65.585938 448.839844 65.738281 448.789062 65.929688 C 448.683594 66.308594 448.910156 66.703125 449.292969 66.804688 C 449.484375 66.855469 449.675781 66.824219 449.835938 66.730469 Z M 448.59375 67.449219 " fill-opacity="1" fill-rule="nonzero"/></g></g></g><g clip-path="url(#clip-22)"><g clip-path="url(#clip-23)"><g clip-path="url(#clip-24)"><path fill="rgb(82.749939%, 82.749939%, 82.749939%)" d="M 274.46875 490.402344 L 273.320312 490.820312 L 272.273438 487.957031 C 271.929688 487.011719 270.875 486.523438 269.921875 486.871094 L 267.621094 487.710938 C 266.667969 488.058594 266.175781 489.109375 266.519531 490.058594 L 268.191406 494.636719 L 266.835938 495.128906 L 266.59375 494.855469 C 265.421875 493.535156 263.585938 493.074219 261.917969 493.683594 L 261.863281 493.703125 C 261.382812 493.125 260.574219 492.875 259.824219 493.148438 C 259.382812 493.308594 259.042969 493.628906 258.835938 494.015625 C 258.429688 493.851562 257.964844 493.828125 257.523438 493.988281 C 257.078125 494.148438 256.742188 494.46875 256.535156 494.855469 C 256.128906 494.691406 255.664062 494.664062 255.222656 494.828125 C 254.777344 494.988281 254.441406 495.308594 254.234375 495.695312 C 253.828125 495.53125 253.363281 495.503906 252.917969 495.667969 C 251.96875 496.015625 251.472656 497.066406 251.820312 498.015625 L 252.65625 500.304688 L 250.929688 500.933594 L 249.257812 496.355469 C 248.914062 495.40625 247.859375 494.917969 246.90625 495.265625 L 244.605469 496.105469 C 243.652344 496.453125 243.160156 497.507812 243.503906 498.453125 L 244.546875 501.316406 L 243.398438 501.734375 C 242.445312 502.082031 241.953125 503.136719 242.296875 504.082031 L 244.386719 509.804688 C 244.730469 510.753906 245.785156 511.242188 246.738281 510.894531 L 247.890625 510.472656 L 248.933594 513.335938 C 249.277344 514.285156 250.335938 514.769531 251.285156 514.425781 L 253.585938 513.585938 C 254.539062 513.238281 255.03125 512.183594 254.6875 511.238281 L 253.015625 506.65625 L 254.320312 506.183594 L 255.285156 507.429688 C 255.328125 507.484375 255.382812 507.535156 255.441406 507.574219 L 257.699219 508.988281 L 260.46875 519.632812 C 260.578125 520.058594 260.863281 520.417969 261.253906 520.621094 C 261.644531 520.824219 262.105469 520.855469 262.519531 520.703125 L 270.320312 517.859375 C 270.738281 517.707031 271.070312 517.386719 271.238281 516.976562 C 271.40625 516.566406 271.390625 516.105469 271.199219 515.710938 L 266.546875 506.074219 C 266.496094 505.976562 266.5 505.855469 266.554688 505.757812 L 268.730469 501.914062 C 268.921875 501.578125 269.003906 501.203125 269 500.828125 L 270.28125 500.359375 L 271.949219 504.941406 C 272.296875 505.886719 273.351562 506.375 274.300781 506.027344 L 276.605469 505.1875 C 277.554688 504.839844 278.050781 503.789062 277.703125 502.839844 L 276.660156 499.980469 L 277.8125 499.558594 C 278.761719 499.210938 279.257812 498.160156 278.910156 497.210938 L 276.824219 491.488281 C 276.476562 490.542969 275.421875 490.054688 274.46875 490.402344 Z M 260.242188 494.292969 C 260.558594 494.175781 260.910156 494.339844 261.027344 494.65625 L 262.070312 497.519531 L 262.257812 498.027344 C 262.335938 498.246094 262.300781 498.480469 262.1875 498.652344 C 262.175781 498.671875 262.164062 498.6875 262.148438 498.707031 C 262.125 498.734375 262.097656 498.757812 262.066406 498.777344 C 262.035156 498.804688 262 498.824219 261.960938 498.84375 C 261.914062 498.863281 261.867188 498.875 261.820312 498.886719 C 261.785156 498.894531 261.75 498.902344 261.714844 498.902344 C 261.664062 498.902344 261.613281 498.894531 261.5625 498.882812 C 261.53125 498.875 261.5 498.871094 261.46875 498.859375 C 261.414062 498.835938 261.367188 498.800781 261.324219 498.765625 C 261.304688 498.75 261.28125 498.742188 261.261719 498.722656 C 261.207031 498.664062 261.15625 498.589844 261.128906 498.511719 L 259.875 495.074219 C 259.761719 494.761719 259.925781 494.410156 260.242188 494.292969 Z M 257.941406 495.132812 C 258.257812 495.015625 258.609375 495.179688 258.726562 495.496094 L 259.976562 498.929688 C 260.09375 499.246094 259.929688 499.597656 259.609375 499.710938 C 259.292969 499.828125 258.941406 499.664062 258.828125 499.351562 L 257.574219 495.914062 C 257.457031 495.601562 257.621094 495.25 257.941406 495.132812 Z M 255.640625 495.972656 C 255.957031 495.855469 256.308594 496.019531 256.421875 496.335938 L 257.675781 499.769531 C 257.792969 500.085938 257.628906 500.4375 257.308594 500.550781 C 256.992188 500.667969 256.640625 500.503906 256.523438 500.1875 L 255.273438 496.753906 C 255.15625 496.4375 255.320312 496.089844 255.640625 495.972656 Z M 252.972656 497.59375 C 252.855469 497.277344 253.019531 496.929688 253.335938 496.8125 C 253.65625 496.695312 254.007812 496.859375 254.121094 497.175781 L 255.375 500.609375 C 255.402344 500.691406 255.414062 500.773438 255.40625 500.859375 C 255.40625 500.882812 255.394531 500.90625 255.390625 500.929688 C 255.378906 500.988281 255.363281 501.042969 255.335938 501.097656 C 255.324219 501.125 255.300781 501.148438 255.28125 501.171875 C 255.25 501.214844 255.21875 501.257812 255.175781 501.289062 C 255.148438 501.308594 255.117188 501.324219 255.089844 501.34375 C 255.046875 501.367188 255 501.386719 254.953125 501.398438 C 254.910156 501.410156 254.871094 501.417969 254.832031 501.417969 C 254.792969 501.417969 254.753906 501.421875 254.71875 501.414062 C 254.695312 501.414062 254.675781 501.40625 254.65625 501.398438 C 254.460938 501.34375 254.28125 501.183594 254.199219 500.96875 L 254.015625 500.457031 Z M 246.320312 509.75 C 246.003906 509.863281 245.652344 509.703125 245.535156 509.386719 L 243.449219 503.664062 C 243.332031 503.347656 243.496094 502.996094 243.816406 502.878906 L 244.964844 502.460938 L 247.472656 509.328125 Z M 253.535156 511.65625 C 253.652344 511.972656 253.488281 512.324219 253.171875 512.441406 L 250.867188 513.277344 C 250.550781 513.394531 250.199219 513.230469 250.085938 512.917969 L 248.832031 509.480469 L 245.90625 501.46875 L 244.65625 498.035156 C 244.539062 497.71875 244.703125 497.367188 245.023438 497.25 L 247.324219 496.410156 C 247.640625 496.296875 247.992188 496.457031 248.109375 496.773438 L 249.988281 501.925781 L 251.65625 506.503906 Z M 251.347656 502.078125 L 253.074219 501.449219 C 253.300781 502.078125 253.84375 502.496094 254.460938 502.609375 C 254.5 502.617188 254.539062 502.621094 254.578125 502.625 C 254.636719 502.632812 254.699219 502.640625 254.761719 502.644531 C 254.828125 502.644531 254.898438 502.640625 254.96875 502.632812 C 255.011719 502.628906 255.050781 502.628906 255.09375 502.621094 C 255.105469 502.617188 255.117188 502.621094 255.132812 502.617188 C 255.175781 502.609375 255.210938 502.589844 255.253906 502.578125 C 255.3125 502.566406 255.367188 502.558594 255.425781 502.535156 C 255.441406 502.53125 255.457031 502.519531 255.472656 502.511719 C 255.523438 502.492188 255.574219 502.464844 255.621094 502.441406 C 255.6875 502.40625 255.753906 502.375 255.8125 502.332031 C 255.859375 502.304688 255.898438 502.269531 255.941406 502.238281 C 256 502.191406 256.054688 502.144531 256.105469 502.09375 C 256.140625 502.054688 256.175781 502.011719 256.214844 501.96875 C 256.257812 501.914062 256.300781 501.859375 256.339844 501.796875 C 256.355469 501.769531 256.378906 501.746094 256.394531 501.71875 C 256.402344 501.707031 256.410156 501.691406 256.417969 501.679688 C 256.460938 501.695312 256.507812 501.707031 256.554688 501.71875 C 256.601562 501.734375 256.644531 501.75 256.691406 501.761719 C 256.757812 501.777344 256.828125 501.78125 256.894531 501.789062 C 256.941406 501.796875 256.984375 501.804688 257.03125 501.804688 C 257.109375 501.808594 257.183594 501.800781 257.261719 501.792969 C 257.300781 501.789062 257.339844 501.792969 257.378906 501.785156 C 257.496094 501.765625 257.613281 501.738281 257.726562 501.695312 C 257.84375 501.65625 257.949219 501.601562 258.050781 501.539062 C 258.085938 501.519531 258.113281 501.492188 258.148438 501.46875 C 258.210938 501.425781 258.273438 501.382812 258.328125 501.332031 C 258.363281 501.300781 258.394531 501.265625 258.425781 501.230469 C 258.472656 501.183594 258.519531 501.132812 258.558594 501.078125 C 258.589844 501.039062 258.613281 501 258.640625 500.957031 C 258.664062 500.917969 258.695312 500.882812 258.71875 500.839844 C 258.761719 500.855469 258.808594 500.867188 258.855469 500.878906 C 258.902344 500.894531 258.945312 500.910156 258.992188 500.921875 C 259.058594 500.9375 259.128906 500.941406 259.195312 500.949219 C 259.242188 500.957031 259.285156 500.964844 259.332031 500.964844 C 259.410156 500.96875 259.484375 500.960938 259.5625 500.953125 C 259.601562 500.949219 259.640625 500.953125 259.683594 500.945312 C 259.796875 500.925781 259.914062 500.898438 260.027344 500.855469 C 260.144531 500.816406 260.25 500.761719 260.351562 500.699219 C 260.386719 500.679688 260.414062 500.65625 260.445312 500.632812 C 260.511719 500.585938 260.574219 500.542969 260.632812 500.492188 C 260.664062 500.460938 260.695312 500.425781 260.726562 500.394531 C 260.773438 500.34375 260.820312 500.292969 260.863281 500.238281 C 260.890625 500.199219 260.914062 500.160156 260.941406 500.121094 C 260.964844 500.078125 260.996094 500.042969 261.019531 500 C 261.035156 500.003906 261.046875 500.011719 261.0625 500.015625 C 261.09375 500.027344 261.125 500.03125 261.15625 500.039062 C 261.222656 500.058594 261.292969 500.078125 261.363281 500.089844 C 261.417969 500.101562 261.46875 500.109375 261.523438 500.113281 C 261.597656 500.121094 261.671875 500.121094 261.746094 500.121094 C 261.800781 500.121094 261.847656 500.117188 261.898438 500.113281 C 261.976562 500.105469 262.050781 500.085938 262.128906 500.070312 C 262.179688 500.058594 262.226562 500.046875 262.277344 500.03125 C 262.292969 500.023438 262.3125 500.023438 262.332031 500.015625 C 262.386719 499.996094 262.4375 499.964844 262.492188 499.9375 C 262.53125 499.921875 262.570312 499.910156 262.609375 499.890625 C 262.621094 499.882812 262.628906 499.875 262.644531 499.867188 C 262.667969 499.851562 262.6875 499.835938 262.710938 499.820312 C 262.777344 499.773438 262.84375 499.726562 262.902344 499.675781 C 262.933594 499.648438 262.964844 499.617188 262.996094 499.589844 C 263.027344 499.554688 263.058594 499.519531 263.089844 499.480469 C 263.425781 499.089844 263.589844 498.574219 263.523438 498.054688 C 263.570312 498.109375 263.613281 498.171875 263.640625 498.242188 L 264.386719 500.296875 L 263.871094 501.402344 L 252.597656 505.511719 Z M 265.492188 505.164062 C 265.238281 505.609375 265.21875 506.148438 265.441406 506.609375 L 270.097656 516.242188 C 270.152344 516.363281 270.125 516.46875 270.105469 516.519531 C 270.082031 516.574219 270.027344 516.667969 269.902344 516.714844 L 262.101562 519.558594 C 261.980469 519.605469 261.875 519.566406 261.824219 519.539062 C 261.773438 519.515625 261.6875 519.453125 261.652344 519.324219 L 258.824219 508.445312 C 258.785156 508.296875 258.691406 508.167969 258.558594 508.085938 L 256.191406 506.597656 L 255.527344 505.742188 L 264.285156 502.546875 C 264.589844 502.4375 264.84375 502.207031 264.976562 501.914062 L 265.496094 500.808594 C 265.636719 500.511719 265.648438 500.179688 265.539062 499.875 L 264.789062 497.824219 C 264.519531 497.078125 263.804688 496.625 263.050781 496.632812 L 262.386719 494.808594 C 263.5625 494.402344 264.847656 494.734375 265.675781 495.664062 L 266.089844 496.128906 C 266.128906 496.164062 266.15625 496.210938 266.175781 496.257812 L 267.730469 500.527344 C 267.828125 500.789062 267.800781 501.078125 267.664062 501.320312 Z M 268.710938 499.636719 L 267.457031 496.203125 L 268.609375 495.78125 L 269.863281 499.214844 Z M 276.554688 503.261719 C 276.667969 503.578125 276.503906 503.925781 276.1875 504.042969 L 273.886719 504.882812 C 273.566406 505 273.214844 504.835938 273.101562 504.519531 L 271.222656 499.367188 L 269.550781 494.789062 L 267.671875 489.636719 C 267.554688 489.320312 267.71875 488.972656 268.039062 488.855469 L 270.339844 488.015625 C 270.65625 487.898438 271.007812 488.0625 271.125 488.378906 L 272.375 491.8125 L 275.300781 499.828125 Z M 277.757812 497.632812 C 277.875 497.949219 277.710938 498.296875 277.394531 498.414062 L 276.242188 498.835938 L 273.738281 491.964844 L 274.886719 491.546875 C 275.203125 491.429688 275.554688 491.59375 275.671875 491.90625 Z M 277.757812 497.632812 " fill-opacity="1" fill-rule="nonzero"/></g></g></g><g clip-path="url(#clip-25)"><g clip-path="url(#clip-26)"><g clip-path="url(#clip-27)"><path fill="rgb(82.749939%, 82.749939%, 82.749939%)" d="M 175.800781 99.222656 L 179.015625 94.984375 C 180.070312 93.59375 180.363281 91.847656 179.824219 90.1875 C 179.285156 88.53125 178.019531 87.289062 176.351562 86.785156 L 160.203125 81.898438 C 158.535156 81.394531 156.792969 81.722656 155.425781 82.804688 C 154.058594 83.886719 153.335938 85.503906 153.441406 87.242188 L 153.765625 92.554688 C 150.523438 93.8125 148.28125 96.046875 147.425781 98.875 C 145.578125 104.972656 150.839844 111.976562 159.152344 114.492188 C 167.464844 117.007812 175.730469 114.09375 177.574219 108 C 178.429688 105.171875 177.800781 102.066406 175.800781 99.222656 Z M 159.457031 113.488281 C 151.699219 111.140625 146.753906 104.722656 148.429688 99.179688 C 149.21875 96.570312 151.371094 94.519531 154.488281 93.402344 C 154.710938 93.324219 154.851562 93.109375 154.835938 92.878906 L 154.492188 87.179688 C 154.40625 85.789062 154.984375 84.492188 156.078125 83.628906 C 157.171875 82.765625 158.566406 82.5 159.898438 82.902344 L 176.050781 87.792969 C 177.382812 88.195312 178.394531 89.1875 178.828125 90.511719 C 179.257812 91.839844 179.019531 93.238281 178.179688 94.347656 L 174.730469 98.898438 C 174.589844 99.085938 174.589844 99.339844 174.730469 99.527344 C 176.707031 102.1875 177.359375 105.085938 176.570312 107.695312 C 174.890625 113.238281 167.214844 115.835938 159.457031 113.488281 Z M 159.457031 113.488281 " fill-opacity="1" fill-rule="nonzero"/></g></g></g><g clip-path="url(#clip-28)"><g clip-path="url(#clip-29)"><g clip-path="url(#clip-30)"><path fill="rgb(82.749939%, 82.749939%, 82.749939%)" d="M 175.707031 106.835938 C 175.824219 106.269531 175.867188 105.683594 175.832031 105.089844 L 174.785156 105.148438 C 174.8125 105.648438 174.777344 106.148438 174.679688 106.625 Z M 175.707031 106.835938 " fill-opacity="1" fill-rule="nonzero"/></g></g></g><g clip-path="url(#clip-31)"><g clip-path="url(#clip-32)"><g clip-path="url(#clip-33)"><path fill="rgb(82.749939%, 82.749939%, 82.749939%)" d="M 168.398438 111.875 L 168.632812 112.898438 C 171.945312 112.144531 174.402344 110.332031 175.375 107.929688 L 174.398438 107.539062 C 173.5625 109.617188 171.375 111.199219 168.398438 111.875 Z M 168.398438 111.875 " fill-opacity="1" fill-rule="nonzero"/></g></g></g><g clip-path="url(#clip-34)"><g clip-path="url(#clip-35)"><g clip-path="url(#clip-36)"><path fill="rgb(82.749939%, 82.749939%, 82.749939%)" d="M 170.128906 97.519531 C 171.59375 97.960938 173.199219 97.441406 174.125 96.222656 L 176.503906 93.078125 C 177.082031 92.320312 176.957031 91.550781 176.828125 91.164062 C 176.613281 90.5 176.109375 90.003906 175.441406 89.800781 L 159.292969 84.914062 C 158.625 84.710938 157.925781 84.84375 157.378906 85.277344 C 157.058594 85.53125 156.527344 86.101562 156.585938 87.050781 L 156.828125 90.988281 C 156.917969 92.515625 157.964844 93.835938 159.429688 94.28125 Z M 157.875 90.921875 L 157.636719 86.988281 C 157.605469 86.535156 157.835938 86.253906 158.03125 86.097656 C 158.226562 85.945312 158.550781 85.789062 158.988281 85.917969 L 175.136719 90.804688 C 175.570312 90.9375 175.753906 91.25 175.832031 91.484375 C 175.90625 91.726562 175.941406 92.085938 175.667969 92.445312 L 173.289062 95.585938 C 172.628906 96.457031 171.480469 96.832031 170.433594 96.515625 L 159.734375 93.277344 C 158.6875 92.960938 157.941406 92.011719 157.875 90.921875 Z M 157.875 90.921875 " fill-opacity="1" fill-rule="nonzero"/></g></g></g><g clip-path="url(#clip-37)"><g clip-path="url(#clip-38)"><g clip-path="url(#clip-39)"><path fill="rgb(82.749939%, 82.749939%, 82.749939%)" d="M 163.5625 99.917969 C 160.515625 98.996094 157.285156 100.726562 156.363281 103.773438 C 155.441406 106.820312 157.171875 110.050781 160.21875 110.976562 C 163.265625 111.898438 166.496094 110.167969 167.417969 107.121094 C 168.339844 104.074219 166.613281 100.84375 163.5625 99.917969 Z M 160.523438 109.96875 C 158.027344 109.214844 156.613281 106.574219 157.367188 104.078125 C 158.125 101.585938 160.765625 100.171875 163.261719 100.925781 C 165.753906 101.679688 167.167969 104.320312 166.414062 106.816406 C 165.660156 109.308594 163.015625 110.722656 160.523438 109.96875 Z M 160.523438 109.96875 " fill-opacity="1" fill-rule="nonzero"/></g></g></g><g clip-path="url(#clip-40)"><g clip-path="url(#clip-41)"><g clip-path="url(#clip-42)"><path fill="rgb(82.749939%, 82.749939%, 82.749939%)" d="M 162.957031 101.929688 C 161.015625 101.34375 158.960938 102.445312 158.375 104.382812 C 157.785156 106.320312 158.886719 108.378906 160.828125 108.964844 C 162.765625 109.550781 164.820312 108.449219 165.410156 106.511719 C 165.996094 104.574219 164.894531 102.515625 162.957031 101.929688 Z M 161.132812 107.960938 C 159.746094 107.539062 158.960938 106.074219 159.378906 104.6875 C 159.796875 103.300781 161.265625 102.515625 162.652344 102.933594 C 164.035156 103.355469 164.824219 104.820312 164.402344 106.207031 C 163.984375 107.59375 162.515625 108.378906 161.132812 107.960938 Z M 161.132812 107.960938 " fill-opacity="1" fill-rule="nonzero"/></g></g></g><g clip-path="url(#clip-43)"><g clip-path="url(#clip-44)"><g clip-path="url(#clip-45)"><path fill="rgb(82.749939%, 82.749939%, 82.749939%)" d="M 161.660156 97.148438 L 162.664062 97.453125 L 162.359375 98.457031 L 161.355469 98.15625 Z M 161.660156 97.148438 " fill-opacity="1" fill-rule="nonzero"/></g></g></g><g clip-path="url(#clip-46)"><g clip-path="url(#clip-47)"><g clip-path="url(#clip-48)"><path fill="rgb(82.749939%, 82.749939%, 82.749939%)" d="M 163.667969 97.757812 L 164.675781 98.0625 L 164.371094 99.066406 L 163.367188 98.761719 Z M 163.667969 97.757812 " fill-opacity="1" fill-rule="nonzero"/></g></g></g><g clip-path="url(#clip-49)"><g clip-path="url(#clip-50)"><g clip-path="url(#clip-51)"><path fill="rgb(82.749939%, 82.749939%, 82.749939%)" d="M 165.679688 98.367188 L 166.683594 98.671875 L 166.378906 99.675781 L 165.375 99.371094 Z M 165.679688 98.367188 " fill-opacity="1" fill-rule="nonzero"/></g></g></g><g clip-path="url(#clip-52)"><path fill="rgb(82.749939%, 82.749939%, 82.749939%)" d="M 391.097656 286.179688 L 390.347656 286.179688 L 388.617188 279.902344 C 390.074219 279.414062 391.097656 278.039062 391.097656 276.484375 C 391.097656 274.796875 389.898438 273.308594 388.246094 272.945312 L 386.601562 272.585938 L 382.835938 258.90625 L 391.097656 258.90625 C 391.257812 258.90625 391.414062 258.84375 391.527344 258.730469 L 393.046875 257.214844 C 393.789062 256.476562 393.789062 255.277344 393.046875 254.539062 C 392.308594 253.800781 391.105469 253.800781 390.363281 254.539062 L 389.628906 255.269531 L 381.371094 255.269531 C 381.183594 255.269531 381.003906 255.359375 380.886719 255.507812 C 380.773438 255.660156 380.734375 255.855469 380.785156 256.035156 L 382.527344 262.371094 L 375.339844 270.113281 L 369.128906 268.753906 C 368.507812 268.617188 367.882812 268.558594 367.261719 268.570312 L 366.382812 265.390625 C 367.078125 265.152344 367.691406 264.699219 368.109375 264.074219 L 368.320312 263.753906 L 370.429688 263.753906 C 371.433594 263.753906 372.253906 262.941406 372.253906 261.9375 C 372.253906 260.933594 371.433594 260.117188 370.429688 260.117188 L 362.527344 260.117188 C 362.191406 260.117188 361.917969 260.390625 361.917969 260.726562 L 361.917969 262.203125 C 361.917969 264.019531 363.367188 265.5 365.171875 265.566406 L 366.035156 268.699219 C 364.742188 268.929688 363.507812 269.464844 362.449219 270.3125 C 360.566406 271.824219 359.484375 274.070312 359.484375 276.484375 C 359.484375 278.894531 360.566406 281.140625 362.449219 282.652344 C 362.695312 282.847656 362.953125 283.019531 363.214844 283.183594 L 360.410156 286.207031 C 358.871094 286.359375 357.664062 287.640625 357.664062 289.210938 C 357.664062 289.542969 357.933594 289.816406 358.269531 289.816406 L 367.996094 289.816406 C 368.332031 289.816406 368.605469 289.542969 368.605469 289.210938 C 368.605469 287.539062 367.242188 286.179688 365.566406 286.179688 L 362.09375 286.179688 L 364.328125 283.769531 C 365.304688 284.179688 366.347656 284.398438 367.410156 284.398438 C 367.980469 284.398438 368.558594 284.335938 369.128906 284.210938 L 387.4375 280.195312 L 389.085938 286.179688 L 388.667969 286.179688 C 386.992188 286.179688 385.625 287.539062 385.625 289.210938 C 385.625 289.542969 385.898438 289.816406 386.234375 289.816406 L 393.53125 289.816406 C 393.867188 289.816406 394.136719 289.542969 394.136719 289.210938 C 394.136719 287.539062 392.773438 286.179688 391.097656 286.179688 Z M 363.132812 262.203125 L 363.132812 261.332031 L 370.429688 261.332031 C 370.761719 261.332031 371.035156 261.601562 371.035156 261.9375 C 371.035156 262.269531 370.761719 262.542969 370.429688 262.542969 L 367.996094 262.542969 C 367.792969 262.542969 367.605469 262.644531 367.492188 262.8125 L 367.097656 263.402344 C 366.695312 264.003906 366.023438 264.359375 365.296875 264.359375 C 364.105469 264.359375 363.132812 263.394531 363.132812 262.203125 Z M 367.285156 288.605469 L 358.980469 288.605469 C 359.234375 287.898438 359.910156 287.390625 360.703125 287.390625 L 365.566406 287.390625 C 366.359375 287.390625 367.035156 287.898438 367.285156 288.605469 Z M 382.167969 256.484375 L 389.882812 256.484375 C 390.042969 256.484375 390.199219 256.417969 390.3125 256.304688 L 391.222656 255.394531 C 391.492188 255.128906 391.921875 255.128906 392.1875 255.394531 C 392.453125 255.660156 392.453125 256.089844 392.1875 256.355469 L 390.847656 257.695312 L 382.503906 257.695312 Z M 382.90625 263.746094 L 385.261719 272.289062 L 376.71875 270.417969 Z M 368.871094 283.027344 C 366.871094 283.464844 364.808594 282.984375 363.210938 281.707031 C 361.617188 280.425781 360.703125 278.523438 360.703125 276.484375 C 360.703125 274.441406 361.617188 272.539062 363.210938 271.257812 C 364.421875 270.289062 365.898438 269.777344 367.414062 269.777344 C 367.898438 269.777344 368.386719 269.832031 368.871094 269.9375 L 387.984375 274.128906 C 389.085938 274.371094 389.882812 275.359375 389.882812 276.484375 C 389.882812 277.605469 389.085938 278.59375 387.984375 278.835938 Z M 386.945312 288.605469 C 387.199219 287.898438 387.875 287.390625 388.667969 287.390625 L 391.097656 287.390625 C 391.890625 287.390625 392.566406 287.898438 392.816406 288.605469 Z M 386.945312 288.605469 " fill-opacity="1" fill-rule="nonzero"/></g><path fill="rgb(82.749939%, 82.749939%, 82.749939%)" d="M 385.019531 274.664062 L 382.585938 274.664062 C 381.582031 274.664062 380.761719 275.480469 380.761719 276.484375 C 380.761719 277.484375 381.582031 278.300781 382.585938 278.300781 L 385.019531 278.300781 C 386.023438 278.300781 386.84375 277.484375 386.84375 276.484375 C 386.84375 275.480469 386.023438 274.664062 385.019531 274.664062 Z M 385.019531 277.089844 L 382.585938 277.089844 C 382.253906 277.089844 381.980469 276.816406 381.980469 276.484375 C 381.980469 276.148438 382.253906 275.875 382.585938 275.875 L 385.019531 275.875 C 385.355469 275.875 385.625 276.148438 385.625 276.484375 C 385.625 276.816406 385.355469 277.089844 385.019531 277.089844 Z M 385.019531 277.089844 " fill-opacity="1" fill-rule="nonzero"/><path fill="rgb(82.749939%, 82.749939%, 82.749939%)" d="M 373.023438 278.078125 L 371.519531 277.476562 C 371.597656 277.15625 371.644531 276.824219 371.644531 276.484375 C 371.644531 274.144531 369.734375 272.238281 367.390625 272.238281 C 365.042969 272.238281 363.132812 274.144531 363.132812 276.484375 C 363.132812 278.820312 365.042969 280.726562 367.390625 280.726562 C 368.960938 280.726562 370.332031 279.871094 371.070312 278.601562 L 372.574219 279.203125 L 372.296875 279.894531 L 373.425781 280.34375 L 374.640625 277.3125 L 373.511719 276.863281 Z M 367.390625 279.511719 C 365.714844 279.511719 364.347656 278.152344 364.347656 276.484375 C 364.347656 274.8125 365.714844 273.453125 367.390625 273.453125 C 369.066406 273.453125 370.429688 274.8125 370.429688 276.484375 C 370.429688 276.667969 370.40625 276.84375 370.375 277.019531 L 367.613281 275.921875 L 367.164062 277.046875 L 369.925781 278.148438 C 369.378906 278.96875 368.449219 279.511719 367.390625 279.511719 Z M 367.390625 279.511719 " fill-opacity="1" fill-rule="nonzero"/><g clip-path="url(#clip-53)"><g clip-path="url(#clip-54)"><g clip-path="url(#clip-55)"><path fill="rgb(82.749939%, 82.749939%, 82.749939%)" d="M 179.769531 294.273438 L 181.289062 294.699219 L 180.859375 296.214844 L 179.34375 295.789062 Z M 179.769531 294.273438 " fill-opacity="1" fill-rule="nonzero"/></g></g></g><g clip-path="url(#clip-56)"><g clip-path="url(#clip-57)"><g clip-path="url(#clip-58)"><path fill="rgb(82.749939%, 82.749939%, 82.749939%)" d="M 182.804688 295.125 L 184.320312 295.554688 L 183.894531 297.070312 L 182.378906 296.644531 Z M 182.804688 295.125 " fill-opacity="1" fill-rule="nonzero"/></g></g></g><g clip-path="url(#clip-59)"><g clip-path="url(#clip-60)"><g clip-path="url(#clip-61)"><path fill="rgb(82.749939%, 82.749939%, 82.749939%)" d="M 185.839844 295.980469 L 187.355469 296.410156 L 186.929688 297.925781 L 185.410156 297.5 Z M 185.839844 295.980469 " fill-opacity="1" fill-rule="nonzero"/></g></g></g><g clip-path="url(#clip-62)"><g clip-path="url(#clip-63)"><g clip-path="url(#clip-64)"><path fill="rgb(82.749939%, 82.749939%, 82.749939%)" d="M 208 316.144531 L 209.515625 316.570312 C 209.871094 315.316406 211.179688 314.582031 212.433594 314.9375 L 212.859375 313.417969 C 211.605469 313.066406 210.871094 311.757812 211.226562 310.503906 L 209.707031 310.074219 C 209.355469 311.328125 208.046875 312.0625 206.792969 311.710938 L 206.363281 313.226562 C 207.617188 313.582031 208.351562 314.890625 208 316.144531 Z M 209.832031 312.542969 C 209.96875 312.902344 210.160156 313.238281 210.394531 313.542969 C 210.035156 313.679688 209.699219 313.871094 209.390625 314.105469 C 209.253906 313.746094 209.066406 313.410156 208.828125 313.101562 C 209.191406 312.964844 209.527344 312.777344 209.832031 312.542969 Z M 209.832031 312.542969 " fill-opacity="1" fill-rule="nonzero"/></g></g></g><g clip-path="url(#clip-65)"><g clip-path="url(#clip-66)"><g clip-path="url(#clip-67)"><path fill="rgb(82.749939%, 82.749939%, 82.749939%)" d="M 214.902344 309.082031 L 216.417969 309.507812 C 216.773438 308.253906 218.082031 307.519531 219.335938 307.875 L 219.761719 306.355469 C 218.507812 306.003906 217.773438 304.695312 218.128906 303.441406 L 216.609375 303.011719 C 216.257812 304.265625 214.949219 305 213.695312 304.648438 L 213.265625 306.164062 C 214.519531 306.519531 215.253906 307.828125 214.902344 309.082031 Z M 216.734375 305.480469 C 216.871094 305.839844 217.0625 306.175781 217.296875 306.480469 C 216.9375 306.617188 216.601562 306.808594 216.292969 307.042969 C 216.15625 306.683594 215.96875 306.347656 215.734375 306.039062 C 216.09375 305.902344 216.429688 305.714844 216.734375 305.480469 Z M 216.734375 305.480469 " fill-opacity="1" fill-rule="nonzero"/></g></g></g><g clip-path="url(#clip-68)"><g clip-path="url(#clip-69)"><g clip-path="url(#clip-70)"><path fill="rgb(82.749939%, 82.749939%, 82.749939%)" d="M 191.667969 340.449219 C 184.226562 337.660156 176.316406 332.347656 170.511719 326.238281 L 168.789062 324.425781 C 169.296875 323.792969 169.6875 323.089844 170.070312 322.402344 C 170.183594 322.199219 170.296875 321.992188 170.414062 321.792969 C 170.75 321.210938 171.214844 320.238281 171.753906 319.113281 C 172.527344 317.492188 173.496094 315.476562 174.066406 314.71875 L 181.890625 304.351562 C 182.0625 304.125 182.230469 303.878906 182.402344 303.625 C 182.859375 302.945312 183.332031 302.242188 183.925781 301.957031 C 184.261719 301.796875 184.660156 301.71875 185.042969 301.660156 C 185.085938 301.652344 185.128906 301.640625 185.167969 301.628906 L 196.101562 297.273438 C 196.648438 297.054688 197.273438 297.234375 197.617188 297.71875 L 201.109375 302.597656 C 201.332031 302.90625 201.402344 303.292969 201.308594 303.660156 C 201.210938 304.027344 200.960938 304.332031 200.617188 304.496094 L 197.035156 306.203125 C 196.425781 306.492188 195.695312 306.257812 195.367188 305.671875 C 195.175781 305.335938 195.148438 304.9375 195.289062 304.578125 C 195.429688 304.222656 195.722656 303.945312 196.089844 303.828125 L 196.390625 303.730469 L 195.90625 302.230469 L 195.601562 302.328125 C 194.785156 302.59375 194.136719 303.203125 193.824219 304.003906 C 193.507812 304.804688 193.570312 305.695312 193.992188 306.441406 C 194.722656 307.75 196.359375 308.269531 197.710938 307.625 L 200.726562 306.191406 L 201.15625 307.515625 L 195.511719 310.132812 L 190.273438 307.925781 C 190.464844 307.558594 190.671875 307.199219 190.890625 306.847656 L 189.550781 306.015625 C 188.546875 307.625 187.804688 309.371094 187.332031 311.207031 C 187.078125 312.191406 186.90625 313.199219 186.742188 314.167969 C 186.550781 315.3125 186.367188 316.390625 186.0625 317.449219 C 185.144531 320.621094 183.078125 323.242188 180.53125 324.457031 L 181.210938 325.878906 C 183.011719 325.019531 184.566406 323.613281 185.75 321.835938 C 186 321.824219 186.289062 321.910156 186.570312 322.015625 C 187.539062 322.386719 188.429688 322.929688 189.222656 323.597656 C 188.6875 324.085938 188.203125 324.636719 187.792969 325.242188 L 189.09375 326.128906 C 189.453125 325.601562 189.878906 325.125 190.355469 324.703125 C 190.367188 324.71875 190.386719 324.734375 190.398438 324.75 L 191.425781 323.894531 C 193.304688 322.695312 195.726562 322.175781 198.28125 322.496094 C 202.101562 322.980469 205.15625 325.199219 206.269531 328.285156 L 207.753906 327.75 C 207.292969 326.46875 206.550781 325.320312 205.597656 324.339844 C 208.308594 323.128906 211.675781 323.367188 214.121094 325.074219 L 215.023438 323.78125 C 211.9375 321.628906 207.621094 321.449219 204.316406 323.21875 C 202.703125 322.019531 200.699219 321.214844 198.476562 320.933594 C 195.523438 320.558594 192.707031 321.183594 190.511719 322.609375 C 189.519531 321.722656 188.375 321.019531 187.128906 320.542969 C 186.964844 320.480469 186.785156 320.421875 186.601562 320.375 C 186.992188 319.59375 187.320312 318.765625 187.574219 317.886719 C 187.90625 316.742188 188.105469 315.570312 188.296875 314.433594 C 188.457031 313.492188 188.621094 312.519531 188.855469 311.597656 C 189.054688 310.832031 189.308594 310.082031 189.609375 309.355469 L 195.222656 311.71875 C 195.253906 311.730469 195.285156 311.742188 195.316406 311.753906 C 195.496094 311.804688 195.691406 311.789062 195.859375 311.707031 L 202.453125 308.652344 C 202.816406 308.484375 202.996094 308.074219 202.871094 307.695312 L 202.105469 305.324219 C 202.449219 304.972656 202.710938 304.542969 202.835938 304.054688 C 203.046875 303.234375 202.886719 302.367188 202.394531 301.675781 L 198.902344 296.800781 C 198.132812 295.726562 196.738281 295.320312 195.515625 295.8125 L 185.0625 300 L 184.730469 300.113281 C 184.269531 300.1875 183.742188 300.300781 183.246094 300.535156 C 182.265625 301.007812 181.644531 301.929688 181.09375 302.742188 C 180.941406 302.972656 180.789062 303.199219 180.632812 303.402344 L 172.808594 313.769531 C 172.140625 314.652344 171.222656 316.574219 170.332031 318.433594 C 169.828125 319.480469 169.355469 320.472656 169.046875 321.003906 C 168.925781 321.214844 168.808594 321.425781 168.691406 321.636719 C 168.226562 322.476562 167.785156 323.269531 167.164062 323.875 C 166.855469 324.175781 166.84375 324.667969 167.140625 324.980469 L 169.367188 327.324219 C 175.332031 333.597656 183.460938 339.054688 191.113281 341.925781 C 191.707031 342.148438 192.464844 342.394531 193.339844 342.640625 C 197.699219 343.871094 204.949219 345.089844 209.0625 343.277344 L 208.429688 341.835938 C 204.179688 343.707031 195.414062 341.855469 191.667969 340.449219 Z M 191.667969 340.449219 " fill-opacity="1" fill-rule="nonzero"/></g></g></g></svg>