<?xml version="1.0" encoding="UTF-8"?><svg xmlns="http://www.w3.org/2000/svg" xmlns:xlink="http://www.w3.org/1999/xlink" contentScriptType="text/ecmascript" width="375" zoomAndPan="magnify" contentStyleType="text/css" viewBox="0 0 375 374.999991" height="374.999991" preserveAspectRatio="xMidYMid meet" version="1.0"><defs><clipPath id="clip-0"><path d="M 82.476562 51 L 292.476562 51 L 292.476562 347.832031 L 82.476562 347.832031 Z M 82.476562 51 " clip-rule="nonzero"/></clipPath></defs><g clip-path="url(#clip-0)"><path fill="rgb(100%, 100%, 100%)" d="M 266.328125 246.144531 C 266.328125 248.5625 264.378906 250.515625 261.964844 250.515625 L 113.09375 250.515625 C 110.6875 250.515625 108.726562 248.5625 108.726562 246.144531 C 108.726562 243.730469 110.6875 241.777344 113.09375 241.777344 L 261.964844 241.777344 C 264.378906 241.777344 266.328125 243.730469 266.328125 246.144531 Z M 108.726562 277.703125 C 108.726562 275.296875 110.6875 273.335938 113.09375 273.335938 L 160.226562 273.335938 C 162.640625 273.335938 164.59375 275.296875 164.59375 277.703125 C 164.59375 280.117188 162.640625 282.078125 160.226562 282.078125 L 113.09375 282.078125 C 110.6875 282.078125 108.726562 280.117188 108.726562 277.703125 Z M 203.996094 313.636719 L 113.09375 313.636719 C 110.6875 313.636719 108.726562 311.671875 108.726562 309.257812 C 108.726562 306.851562 110.6875 304.890625 113.09375 304.890625 L 203.996094 304.890625 C 206.398438 304.890625 208.359375 306.851562 208.359375 309.257812 C 208.359375 311.671875 206.398438 313.636719 203.996094 313.636719 Z M 113.09375 210.222656 L 217.335938 210.222656 C 219.75 210.222656 221.703125 212.175781 221.703125 214.589844 C 221.703125 217.003906 219.75 218.957031 217.335938 218.957031 L 113.09375 218.957031 C 110.6875 218.957031 108.726562 217.003906 108.726562 214.589844 C 108.726562 212.175781 110.6875 210.222656 113.09375 210.222656 Z M 162.300781 116.582031 C 163.902344 116.222656 165.355469 116.023438 166.769531 116.023438 C 170.203125 116.023438 173.492188 117.148438 178.527344 119.75 C 181.433594 121.25 184.515625 122.148438 187.449219 122.328125 C 187.503906 122.328125 187.5625 122.328125 187.617188 122.328125 C 190.550781 122.148438 193.632812 121.25 196.539062 119.75 C 203.65625 116.0625 207.304688 115.355469 212.765625 116.582031 C 225.003906 119.328125 231.386719 137.488281 227.003906 157.054688 C 222.609375 176.628906 209.078125 190.308594 196.839844 187.550781 C 195.773438 187.316406 194.738281 186.957031 193.746094 186.476562 C 191.804688 185.542969 189.730469 185.042969 187.496094 184.976562 C 185.335938 185.042969 183.253906 185.542969 181.320312 186.476562 C 180.328125 186.957031 179.292969 187.316406 178.226562 187.550781 C 165.996094 190.308594 152.457031 176.617188 148.0625 157.054688 C 143.667969 137.488281 150.0625 119.328125 162.300781 116.582031 Z M 193.679688 100.589844 L 190.898438 119.035156 C 189.765625 119.335938 188.636719 119.535156 187.53125 119.609375 C 186.503906 119.535156 185.457031 119.363281 184.402344 119.101562 L 181.613281 100.589844 Z M 194.878906 112.300781 C 201.65625 91.847656 221.261719 94.46875 226.804688 95.65625 C 224.605469 100.894531 215.507812 118.46875 194.878906 112.300781 Z M 236.894531 72.835938 L 138.171875 72.835938 C 130.109375 72.835938 123.558594 66.28125 123.558594 58.222656 L 123.558594 51.1875 L 84.589844 51.1875 C 83.417969 51.1875 82.476562 52.128906 82.476562 53.300781 L 82.476562 345.71875 C 82.476562 346.890625 83.417969 347.832031 84.589844 347.832031 L 290.476562 347.832031 C 291.636719 347.832031 292.589844 346.890625 292.589844 345.71875 L 292.589844 53.300781 C 292.589844 52.128906 291.636719 51.1875 290.476562 51.1875 L 251.507812 51.1875 L 251.507812 58.222656 C 251.507812 66.28125 244.953125 72.835938 236.894531 72.835938 " fill-opacity="1" fill-rule="nonzero"/></g><path fill="rgb(100%, 100%, 100%)" d="M 132.289062 39.828125 C 132.289062 36.582031 134.929688 33.941406 138.171875 33.941406 L 167.84375 33.941406 C 169.382812 33.941406 170.804688 33.140625 171.589844 31.808594 C 172.378906 30.488281 172.417969 28.855469 171.683594 27.5 C 170.277344 24.894531 169.53125 21.941406 169.53125 18.960938 C 169.53125 13.574219 171.917969 8.507812 176.085938 5.0625 C 180.308594 1.582031 185.648438 0.242188 191.164062 1.308594 C 198.273438 2.6875 203.921875 8.402344 205.222656 15.546875 C 205.976562 19.722656 205.34375 23.855469 203.382812 27.5 C 202.648438 28.855469 202.683594 30.488281 203.46875 31.808594 C 204.257812 33.140625 205.683594 33.941406 207.21875 33.941406 L 236.894531 33.941406 C 240.136719 33.941406 242.777344 36.582031 242.777344 39.828125 L 242.777344 58.222656 C 242.777344 61.460938 240.136719 64.101562 236.894531 64.101562 L 138.171875 64.101562 C 134.929688 64.101562 132.289062 61.460938 132.289062 58.222656 L 132.289062 39.828125 " fill-opacity="1" fill-rule="nonzero"/><path fill="rgb(92.549133%, 32.159424%, 25.878906%)" d="M 242.429688 374.222656 C 239.15625 373.753906 236.308594 373.09375 236.097656 372.757812 C 235.890625 372.421875 234.929688 370.878906 233.960938 369.332031 C 231.234375 364.984375 229.335938 360.289062 226.277344 350.351562 C 220.824219 332.632812 219.761719 328.027344 220.492188 325.238281 C 221.617188 320.929688 231.390625 314.84375 237.472656 314.65625 C 242.382812 314.507812 242.953125 314.929688 245.8125 320.824219 C 247.496094 324.304688 249.96875 329.839844 251.304688 333.125 C 252.640625 336.414062 254.59375 339.101562 255.648438 339.101562 C 256.703125 339.101562 260.667969 334.199219 264.464844 328.207031 C 268.261719 322.210938 271.96875 316.636719 272.699219 315.8125 C 273.429688 314.992188 274.839844 312.777344 275.835938 310.894531 C 280.109375 302.8125 314.707031 255.378906 325 243.492188 C 327.34375 240.785156 329.265625 238.101562 329.265625 237.527344 C 329.269531 236.957031 332.59375 234.335938 336.65625 231.707031 C 342.207031 228.113281 346.140625 226.726562 352.492188 226.125 C 364.234375 225.015625 365.339844 226.078125 360.394531 233.730469 C 358.175781 237.164062 355.15625 241.242188 353.6875 242.789062 C 352.222656 244.335938 347.867188 249.710938 344.011719 254.738281 C 340.160156 259.765625 336.3125 264.511719 335.464844 265.285156 C 334.621094 266.058594 332.433594 268.90625 330.609375 271.613281 C 328.785156 274.320312 326.949219 276.847656 326.523438 277.234375 C 322.847656 280.589844 283.375 335.503906 280.035156 341.914062 C 279.03125 343.847656 277.824219 345.746094 277.359375 346.132812 C 276.898438 346.519531 272.851562 352.351562 268.371094 359.09375 C 263.886719 365.835938 259.539062 371.769531 258.707031 372.285156 C 255.65625 374.171875 248.230469 375.054688 242.429688 374.222656 Z M 242.429688 374.222656 " fill-opacity="1" fill-rule="nonzero"/></svg>