<?xml version="1.0" encoding="UTF-8"?><svg xmlns="http://www.w3.org/2000/svg" xmlns:xlink="http://www.w3.org/1999/xlink" contentScriptType="text/ecmascript" width="375" zoomAndPan="magnify" contentStyleType="text/css" viewBox="0 0 375 374.999991" height="374.999991" preserveAspectRatio="xMidYMid meet" version="1.0"><defs><clipPath id="clip-0"><path d="M 0 32.8125 L 375 32.8125 L 375 342.1875 L 0 342.1875 Z M 0 32.8125 " clip-rule="nonzero"/></clipPath></defs><g clip-path="url(#clip-0)"><path fill="rgb(100%, 100%, 100%)" d="M 165.1875 32.945312 C 160.445312 33.019531 155.875 34.09375 151.253906 36.3125 L 54.992188 84.308594 C 46.433594 88.582031 41.492188 97.199219 41.484375 106.15625 C 41.484375 109.824219 42.304688 113.546875 44.042969 117.054688 C 48.3125 125.613281 56.933594 130.550781 65.890625 130.558594 C 69.558594 130.558594 73.28125 129.75 76.789062 128 L 159.722656 86.628906 L 185.808594 128.128906 L 66.539062 199.382812 C 68.09375 200.351562 69.589844 201.433594 70.941406 202.785156 C 71.113281 202.921875 80.953125 211.902344 98.425781 211.902344 C 115.917969 211.902344 125.769531 202.910156 126.183594 202.53125 L 128.710938 200.511719 C 138.285156 193.304688 151.789062 194.152344 160.421875 202.785156 C 160.59375 202.921875 170.433594 211.902344 187.90625 211.902344 C 205.394531 211.902344 215.246094 202.910156 215.664062 202.53125 L 218.253906 200.480469 C 227.914062 193.304688 241.285156 194.203125 249.882812 202.785156 C 249.980469 202.875 253.328125 205.808594 259.320312 208.328125 L 266.40625 193.078125 C 268.246094 188.796875 269.210938 184.242188 269.25 179.554688 C 269.300781 172.835938 267.4375 166.269531 263.882812 160.648438 L 192.941406 47.753906 C 186.898438 38.460938 176.734375 32.945312 165.679688 32.945312 Z M 309.925781 81.75 C 287.496094 81.75 269.25 99.988281 269.25 122.40625 C 269.25 144.84375 287.496094 163.097656 309.925781 163.097656 C 332.351562 163.097656 350.597656 144.84375 350.597656 122.40625 C 350.597656 99.988281 332.351562 81.75 309.925781 81.75 Z M 232.949219 211.777344 C 232.292969 211.761719 231.648438 211.824219 231.011719 211.96875 C 230.988281 211.972656 230.96875 211.976562 230.945312 211.984375 C 229.042969 212.375 227.480469 213.328125 226.257812 214.84375 C 224.652344 216.386719 211.671875 228.171875 187.90625 228.171875 C 164.65625 228.171875 151.835938 216.96875 149.761719 215.015625 C 148.972656 213.976562 147.988281 213.167969 146.8125 212.601562 C 145.636719 212.03125 144.394531 211.761719 143.085938 211.792969 C 142.5625 211.800781 142.042969 211.859375 141.53125 211.96875 C 141.507812 211.972656 141.488281 211.976562 141.46875 211.984375 C 139.5625 212.375 138 213.328125 136.78125 214.84375 C 135.171875 216.386719 122.191406 228.171875 98.425781 228.171875 C 74.726562 228.171875 61.773438 216.457031 60.105469 214.859375 C 59.316406 213.875 58.347656 213.117188 57.203125 212.582031 C 56.058594 212.050781 54.855469 211.796875 53.59375 211.824219 C 53.570312 211.824219 53.550781 211.824219 53.527344 211.824219 C 53.449219 211.828125 53.371094 211.832031 53.289062 211.839844 C 52.121094 211.886719 51.015625 212.171875 49.972656 212.695312 C 48.925781 213.21875 48.035156 213.933594 47.300781 214.84375 C 45.691406 216.386719 32.714844 228.171875 8.949219 228.171875 C 8.410156 228.164062 7.875 228.210938 7.34375 228.308594 C 6.816406 228.40625 6.300781 228.558594 5.800781 228.757812 C 5.300781 228.960938 4.824219 229.207031 4.375 229.503906 C 3.921875 229.796875 3.503906 230.136719 3.121094 230.515625 C 2.738281 230.890625 2.394531 231.304688 2.09375 231.75 C 1.789062 232.199219 1.535156 232.667969 1.328125 233.167969 C 1.121094 233.664062 0.960938 234.175781 0.855469 234.707031 C 0.75 235.234375 0.699219 235.769531 0.699219 236.308594 C 0.699219 236.847656 0.75 237.378906 0.855469 237.90625 C 0.960938 238.4375 1.121094 238.949219 1.328125 239.445312 C 1.535156 239.945312 1.789062 240.414062 2.09375 240.863281 C 2.394531 241.308594 2.738281 241.722656 3.121094 242.101562 C 3.503906 242.476562 3.921875 242.816406 4.375 243.109375 C 4.824219 243.40625 5.300781 243.65625 5.800781 243.855469 C 6.300781 244.054688 6.816406 244.207031 7.34375 244.304688 C 7.875 244.402344 8.410156 244.449219 8.949219 244.441406 C 30.464844 244.441406 45.90625 235.851562 53.6875 230.332031 C 61.46875 235.851562 76.910156 244.441406 98.425781 244.441406 C 119.945312 244.441406 135.386719 235.851562 143.167969 230.332031 C 150.945312 235.851562 166.390625 244.441406 187.90625 244.441406 C 209.421875 244.441406 224.867188 235.851562 232.644531 230.332031 C 240.425781 235.851562 255.867188 244.441406 277.386719 244.441406 C 298.902344 244.441406 314.347656 235.851562 322.125 230.332031 C 329.90625 235.851562 345.347656 244.441406 366.867188 244.441406 C 367.40625 244.449219 367.9375 244.402344 368.46875 244.304688 C 369 244.207031 369.515625 244.054688 370.015625 243.855469 C 370.515625 243.65625 370.988281 243.40625 371.441406 243.109375 C 371.890625 242.816406 372.308594 242.476562 372.691406 242.101562 C 373.074219 241.722656 373.417969 241.308594 373.722656 240.863281 C 374.023438 240.414062 374.277344 239.945312 374.484375 239.445312 C 374.695312 238.949219 374.851562 238.4375 374.957031 237.90625 C 375.0625 237.378906 375.117188 236.847656 375.117188 236.308594 C 375.117188 235.769531 375.0625 235.234375 374.957031 234.707031 C 374.851562 234.175781 374.695312 233.664062 374.484375 233.167969 C 374.277344 232.667969 374.023438 232.199219 373.722656 231.75 C 373.417969 231.304688 373.074219 230.890625 372.691406 230.515625 C 372.308594 230.136719 371.890625 229.796875 371.441406 229.503906 C 370.988281 229.207031 370.515625 228.960938 370.015625 228.757812 C 369.515625 228.558594 369 228.40625 368.46875 228.308594 C 367.9375 228.210938 367.40625 228.164062 366.867188 228.171875 C 343.613281 228.171875 330.792969 216.96875 328.71875 215.015625 C 328.25 214.394531 327.703125 213.855469 327.082031 213.390625 C 326.457031 212.925781 325.78125 212.558594 325.050781 212.289062 C 324.320312 212.015625 323.570312 211.855469 322.792969 211.800781 C 322.015625 211.746094 321.25 211.800781 320.488281 211.96875 C 320.46875 211.972656 320.445312 211.976562 320.425781 211.984375 C 318.523438 212.375 316.960938 213.328125 315.738281 214.84375 C 314.132812 216.386719 301.152344 228.171875 277.386719 228.171875 C 254.136719 228.171875 241.3125 216.96875 239.238281 215.015625 C 238.492188 214.027344 237.570312 213.246094 236.464844 212.675781 C 235.363281 212.109375 234.1875 211.808594 232.949219 211.777344 Z M 232.949219 260.582031 C 232.292969 260.570312 231.648438 260.632812 231.011719 260.773438 C 230.988281 260.777344 230.96875 260.785156 230.945312 260.789062 C 229.042969 261.183594 227.480469 262.136719 226.257812 263.648438 C 224.652344 265.191406 211.671875 276.980469 187.90625 276.980469 C 164.65625 276.980469 151.835938 265.773438 149.761719 263.824219 C 148.972656 262.78125 147.988281 261.976562 146.8125 261.40625 C 145.636719 260.839844 144.394531 260.570312 143.085938 260.597656 C 142.5625 260.605469 142.042969 260.664062 141.53125 260.773438 C 141.507812 260.777344 141.488281 260.785156 141.46875 260.789062 C 139.5625 261.183594 138 262.136719 136.78125 263.648438 C 135.171875 265.191406 122.191406 276.980469 98.425781 276.980469 C 74.726562 276.980469 61.773438 265.261719 60.105469 263.664062 C 59.316406 262.683594 58.347656 261.921875 57.203125 261.390625 C 56.058594 260.855469 54.855469 260.605469 53.59375 260.632812 C 53.570312 260.632812 53.550781 260.632812 53.527344 260.632812 C 53.449219 260.636719 53.371094 260.640625 53.289062 260.648438 C 52.121094 260.695312 51.015625 260.980469 49.972656 261.503906 C 48.925781 262.027344 48.035156 262.742188 47.300781 263.648438 C 45.691406 265.191406 32.714844 276.980469 8.949219 276.980469 C 8.410156 276.972656 7.875 277.015625 7.34375 277.117188 C 6.816406 277.214844 6.300781 277.363281 5.800781 277.566406 C 5.300781 277.765625 4.824219 278.015625 4.375 278.308594 C 3.921875 278.605469 3.503906 278.941406 3.121094 279.320312 C 2.738281 279.699219 2.394531 280.113281 2.09375 280.558594 C 1.792969 281.003906 1.535156 281.476562 1.328125 281.972656 C 1.121094 282.472656 0.964844 282.984375 0.855469 283.511719 C 0.75 284.042969 0.699219 284.574219 0.699219 285.113281 C 0.699219 285.652344 0.75 286.1875 0.855469 286.714844 C 0.964844 287.242188 1.121094 287.757812 1.328125 288.253906 C 1.535156 288.75 1.792969 289.222656 2.09375 289.667969 C 2.394531 290.117188 2.738281 290.527344 3.121094 290.90625 C 3.503906 291.285156 3.921875 291.621094 4.375 291.917969 C 4.824219 292.214844 5.300781 292.460938 5.800781 292.664062 C 6.300781 292.863281 6.816406 293.011719 7.34375 293.113281 C 7.875 293.210938 8.410156 293.257812 8.949219 293.25 C 30.464844 293.25 45.90625 284.660156 53.6875 279.140625 C 61.46875 284.660156 76.910156 293.25 98.425781 293.25 C 119.945312 293.25 135.386719 284.660156 143.167969 279.140625 C 150.945312 284.660156 166.390625 293.25 187.90625 293.25 C 209.421875 293.25 224.867188 284.660156 232.644531 279.140625 C 240.425781 284.660156 255.867188 293.25 277.386719 293.25 C 298.902344 293.25 314.347656 284.660156 322.125 279.140625 C 329.90625 284.660156 345.347656 293.25 366.867188 293.25 C 367.40625 293.257812 367.9375 293.210938 368.46875 293.113281 C 369 293.011719 369.511719 292.863281 370.015625 292.664062 C 370.515625 292.460938 370.988281 292.214844 371.441406 291.917969 C 371.890625 291.621094 372.308594 291.285156 372.691406 290.90625 C 373.074219 290.527344 373.417969 290.117188 373.71875 289.667969 C 374.023438 289.222656 374.277344 288.75 374.484375 288.253906 C 374.691406 287.757812 374.851562 287.242188 374.957031 286.714844 C 375.0625 286.1875 375.117188 285.652344 375.117188 285.113281 C 375.117188 284.574219 375.0625 284.042969 374.957031 283.511719 C 374.851562 282.984375 374.691406 282.472656 374.484375 281.972656 C 374.277344 281.476562 374.023438 281.003906 373.71875 280.558594 C 373.417969 280.113281 373.074219 279.699219 372.691406 279.320312 C 372.308594 278.941406 371.890625 278.605469 371.441406 278.308594 C 370.988281 278.015625 370.515625 277.765625 370.015625 277.566406 C 369.511719 277.363281 369 277.214844 368.46875 277.117188 C 367.9375 277.015625 367.40625 276.972656 366.867188 276.980469 C 343.613281 276.980469 330.792969 265.773438 328.71875 263.824219 C 328.25 263.203125 327.703125 262.660156 327.082031 262.195312 C 326.457031 261.730469 325.78125 261.363281 325.050781 261.09375 C 324.320312 260.824219 323.570312 260.660156 322.792969 260.605469 C 322.015625 260.550781 321.25 260.609375 320.488281 260.773438 C 320.46875 260.777344 320.445312 260.785156 320.425781 260.789062 C 318.523438 261.183594 316.960938 262.136719 315.738281 263.648438 C 314.132812 265.191406 301.152344 276.980469 277.386719 276.980469 C 254.136719 276.980469 241.3125 265.773438 239.238281 263.824219 C 238.492188 262.832031 237.570312 262.050781 236.464844 261.484375 C 235.363281 260.914062 234.1875 260.613281 232.949219 260.582031 Z M 232.949219 309.390625 C 232.292969 309.375 231.648438 309.4375 231.011719 309.582031 C 230.988281 309.585938 230.96875 309.589844 230.945312 309.597656 C 229.042969 309.988281 227.480469 310.941406 226.257812 312.457031 C 224.652344 314 211.671875 325.785156 187.90625 325.785156 C 164.65625 325.785156 151.835938 314.582031 149.761719 312.632812 C 148.972656 311.589844 147.988281 310.785156 146.8125 310.214844 C 145.636719 309.644531 144.394531 309.375 143.085938 309.40625 C 142.5625 309.414062 142.042969 309.472656 141.53125 309.582031 C 141.507812 309.585938 141.488281 309.589844 141.46875 309.597656 C 139.5625 309.988281 138 310.941406 136.78125 312.457031 C 135.171875 314 122.191406 325.785156 98.425781 325.785156 C 74.726562 325.785156 61.773438 314.070312 60.105469 312.472656 C 59.316406 311.488281 58.347656 310.730469 57.203125 310.195312 C 56.058594 309.664062 54.855469 309.410156 53.59375 309.4375 C 53.570312 309.4375 53.550781 309.4375 53.527344 309.4375 C 53.449219 309.441406 53.371094 309.449219 53.289062 309.453125 C 52.121094 309.5 51.015625 309.785156 49.972656 310.308594 C 48.925781 310.832031 48.035156 311.550781 47.300781 312.457031 C 45.691406 314 32.714844 325.785156 8.949219 325.785156 C 8.410156 325.777344 7.875 325.824219 7.34375 325.921875 C 6.816406 326.019531 6.300781 326.171875 5.800781 326.371094 C 5.300781 326.574219 4.824219 326.820312 4.371094 327.117188 C 3.921875 327.414062 3.503906 327.75 3.121094 328.128906 C 2.738281 328.507812 2.394531 328.917969 2.09375 329.363281 C 1.789062 329.8125 1.535156 330.285156 1.328125 330.78125 C 1.121094 331.277344 0.960938 331.792969 0.855469 332.320312 C 0.75 332.847656 0.695312 333.382812 0.695312 333.921875 C 0.695312 334.460938 0.75 334.992188 0.855469 335.523438 C 0.960938 336.050781 1.121094 336.5625 1.328125 337.0625 C 1.535156 337.558594 1.789062 338.03125 2.09375 338.476562 C 2.394531 338.921875 2.738281 339.335938 3.121094 339.714844 C 3.503906 340.09375 3.921875 340.429688 4.371094 340.726562 C 4.824219 341.019531 5.300781 341.269531 5.800781 341.46875 C 6.300781 341.671875 6.816406 341.820312 7.34375 341.917969 C 7.875 342.015625 8.410156 342.0625 8.949219 342.054688 C 30.464844 342.054688 45.90625 333.464844 53.6875 327.945312 C 61.46875 333.464844 76.910156 342.054688 98.425781 342.054688 C 119.945312 342.054688 135.386719 333.464844 143.167969 327.945312 C 150.945312 333.464844 166.390625 342.054688 187.90625 342.054688 C 209.421875 342.054688 224.867188 333.464844 232.644531 327.945312 C 240.425781 333.464844 255.867188 342.054688 277.386719 342.054688 C 298.902344 342.054688 314.347656 333.464844 322.125 327.945312 C 329.90625 333.464844 345.347656 342.054688 366.867188 342.054688 C 367.40625 342.0625 367.9375 342.015625 368.46875 341.917969 C 369 341.820312 369.515625 341.671875 370.015625 341.46875 C 370.515625 341.269531 370.988281 341.019531 371.441406 340.726562 C 371.890625 340.429688 372.308594 340.09375 372.691406 339.714844 C 373.078125 339.335938 373.417969 338.921875 373.722656 338.476562 C 374.023438 338.03125 374.277344 337.558594 374.484375 337.0625 C 374.695312 336.5625 374.851562 336.050781 374.957031 335.523438 C 375.0625 334.992188 375.117188 334.460938 375.117188 333.921875 C 375.117188 333.382812 375.0625 332.847656 374.957031 332.320312 C 374.851562 331.792969 374.695312 331.277344 374.484375 330.78125 C 374.277344 330.285156 374.023438 329.8125 373.722656 329.363281 C 373.417969 328.917969 373.078125 328.507812 372.691406 328.128906 C 372.308594 327.75 371.890625 327.414062 371.441406 327.117188 C 370.988281 326.820312 370.515625 326.574219 370.015625 326.371094 C 369.515625 326.171875 369 326.019531 368.46875 325.921875 C 367.9375 325.824219 367.40625 325.777344 366.867188 325.785156 C 343.613281 325.785156 330.792969 314.582031 328.71875 312.632812 C 328.25 312.011719 327.703125 311.46875 327.082031 311.003906 C 326.457031 310.539062 325.78125 310.171875 325.050781 309.902344 C 324.320312 309.628906 323.570312 309.46875 322.792969 309.414062 C 322.015625 309.359375 321.25 309.414062 320.488281 309.582031 C 320.46875 309.585938 320.445312 309.589844 320.425781 309.597656 C 318.523438 309.988281 316.960938 310.941406 315.738281 312.457031 C 314.132812 314 301.152344 325.785156 277.386719 325.785156 C 254.136719 325.785156 241.3125 314.582031 239.238281 312.632812 C 238.492188 311.640625 237.570312 310.859375 236.464844 310.289062 C 235.363281 309.722656 234.1875 309.421875 232.949219 309.390625 Z M 232.949219 309.390625 " fill-opacity="1" fill-rule="nonzero"/></g><path fill="rgb(92.549133%, 32.159424%, 25.878906%)" d="M 310.539062 71.960938 C 285.6875 71.960938 265.539062 92.109375 265.539062 116.960938 C 265.539062 141.8125 285.6875 161.960938 310.539062 161.960938 C 335.390625 161.960938 355.539062 141.8125 355.539062 116.960938 C 355.539062 92.109375 335.390625 71.960938 310.539062 71.960938 Z M 310.539062 71.960938 " fill-opacity="1" fill-rule="nonzero"/></svg>