<?xml version="1.0" encoding="UTF-8"?><svg xmlns="http://www.w3.org/2000/svg" xmlns:xlink="http://www.w3.org/1999/xlink" contentScriptType="text/ecmascript" width="375" zoomAndPan="magnify" contentStyleType="text/css" viewBox="0 0 375 374.999991" height="374.999991" preserveAspectRatio="xMidYMid meet" version="1.0"><defs><clipPath id="clip-0"><path d="M 0 32.8125 L 375 32.8125 L 375 342.5625 L 0 342.5625 Z M 0 32.8125 " clip-rule="nonzero"/></clipPath></defs><g clip-path="url(#clip-0)"><path fill="rgb(100%, 100%, 100%)" d="M 165.1875 32.945312 C 160.445312 33.019531 155.875 34.09375 151.253906 36.316406 L 54.992188 84.371094 C 46.433594 88.648438 41.492188 97.277344 41.484375 106.242188 C 41.484375 109.917969 42.304688 113.644531 44.042969 117.15625 C 48.3125 125.722656 56.933594 130.667969 65.890625 130.675781 C 69.558594 130.675781 73.28125 129.867188 76.789062 128.117188 L 159.722656 86.695312 L 185.808594 128.242188 L 66.539062 199.585938 C 68.09375 200.554688 69.589844 201.636719 70.941406 202.988281 C 71.113281 203.128906 80.953125 212.121094 98.425781 212.121094 C 115.917969 212.121094 125.769531 203.117188 126.183594 202.734375 L 128.710938 200.714844 C 138.285156 193.5 151.789062 194.347656 160.421875 202.988281 C 160.59375 203.128906 170.433594 212.121094 187.90625 212.121094 C 205.394531 212.121094 215.246094 203.117188 215.664062 202.734375 L 218.253906 200.683594 C 227.914062 193.5 241.285156 194.398438 249.882812 202.988281 C 249.980469 203.078125 253.328125 206.015625 259.320312 208.542969 L 266.40625 193.269531 C 268.246094 188.988281 269.210938 184.425781 269.25 179.734375 C 269.300781 173.007812 267.4375 166.433594 263.882812 160.804688 L 192.941406 47.769531 C 186.898438 38.46875 176.734375 32.945312 165.679688 32.945312 Z M 309.925781 81.8125 C 287.496094 81.8125 269.25 100.070312 269.25 122.515625 C 269.25 144.980469 287.496094 163.253906 309.925781 163.253906 C 332.351562 163.253906 350.597656 144.980469 350.597656 122.515625 C 350.597656 100.070312 332.351562 81.8125 309.925781 81.8125 Z M 232.949219 211.992188 C 232.292969 211.980469 231.648438 212.042969 231.011719 212.183594 C 230.988281 212.1875 230.96875 212.195312 230.945312 212.199219 C 229.042969 212.59375 227.480469 213.546875 226.257812 215.0625 C 224.652344 216.609375 211.671875 228.410156 187.90625 228.410156 C 164.65625 228.410156 151.835938 217.191406 149.761719 215.238281 C 148.972656 214.195312 147.988281 213.386719 146.8125 212.820312 C 145.636719 212.25 144.394531 211.980469 143.085938 212.007812 C 142.5625 212.015625 142.042969 212.074219 141.53125 212.183594 C 141.507812 212.1875 141.488281 212.195312 141.46875 212.199219 C 139.5625 212.59375 138 213.546875 136.78125 215.0625 C 135.171875 216.609375 122.191406 228.410156 98.425781 228.410156 C 74.726562 228.410156 61.773438 216.679688 60.105469 215.078125 C 59.316406 214.09375 58.347656 213.335938 57.203125 212.800781 C 56.058594 212.265625 54.855469 212.015625 53.59375 212.039062 C 53.570312 212.039062 53.550781 212.039062 53.527344 212.039062 C 53.449219 212.046875 53.371094 212.050781 53.289062 212.058594 C 52.121094 212.105469 51.015625 212.390625 49.972656 212.914062 C 48.925781 213.4375 48.035156 214.15625 47.300781 215.0625 C 45.691406 216.609375 32.714844 228.410156 8.949219 228.410156 C 8.410156 228.402344 7.875 228.445312 7.34375 228.546875 C 6.816406 228.644531 6.300781 228.792969 5.800781 228.996094 C 5.300781 229.195312 4.824219 229.445312 4.375 229.742188 C 3.921875 230.039062 3.503906 230.375 3.121094 230.753906 C 2.738281 231.132812 2.394531 231.546875 2.09375 231.992188 C 1.789062 232.441406 1.535156 232.910156 1.328125 233.410156 C 1.121094 233.90625 0.960938 234.421875 0.855469 234.949219 C 0.75 235.480469 0.699219 236.015625 0.699219 236.554688 C 0.699219 237.09375 0.75 237.628906 0.855469 238.15625 C 0.960938 238.6875 1.121094 239.199219 1.328125 239.695312 C 1.535156 240.195312 1.789062 240.667969 2.09375 241.113281 C 2.394531 241.5625 2.738281 241.976562 3.121094 242.355469 C 3.503906 242.734375 3.921875 243.070312 4.375 243.367188 C 4.824219 243.660156 5.300781 243.910156 5.800781 244.113281 C 6.300781 244.3125 6.816406 244.460938 7.34375 244.5625 C 7.875 244.660156 8.410156 244.707031 8.949219 244.699219 C 30.464844 244.699219 45.90625 236.097656 53.6875 230.574219 C 61.46875 236.097656 76.910156 244.699219 98.425781 244.699219 C 119.945312 244.699219 135.386719 236.097656 143.167969 230.574219 C 150.945312 236.097656 166.390625 244.699219 187.90625 244.699219 C 209.421875 244.699219 224.867188 236.097656 232.644531 230.574219 C 240.425781 236.097656 255.867188 244.699219 277.386719 244.699219 C 298.902344 244.699219 314.347656 236.097656 322.125 230.574219 C 329.90625 236.097656 345.347656 244.699219 366.867188 244.699219 C 367.40625 244.707031 367.9375 244.660156 368.46875 244.5625 C 369 244.460938 369.515625 244.3125 370.015625 244.113281 C 370.515625 243.910156 370.988281 243.660156 371.441406 243.367188 C 371.890625 243.070312 372.308594 242.734375 372.691406 242.355469 C 373.074219 241.976562 373.417969 241.5625 373.722656 241.113281 C 374.023438 240.667969 374.277344 240.195312 374.484375 239.695312 C 374.695312 239.199219 374.851562 238.6875 374.957031 238.15625 C 375.0625 237.628906 375.117188 237.09375 375.117188 236.554688 C 375.117188 236.015625 375.0625 235.480469 374.957031 234.949219 C 374.851562 234.421875 374.695312 233.90625 374.484375 233.410156 C 374.277344 232.910156 374.023438 232.441406 373.722656 231.992188 C 373.417969 231.546875 373.074219 231.132812 372.691406 230.753906 C 372.308594 230.375 371.890625 230.039062 371.441406 229.742188 C 370.988281 229.445312 370.515625 229.195312 370.015625 228.996094 C 369.515625 228.792969 369 228.644531 368.46875 228.546875 C 367.9375 228.445312 367.40625 228.402344 366.867188 228.410156 C 343.613281 228.410156 330.792969 217.191406 328.71875 215.238281 C 328.25 214.617188 327.703125 214.074219 327.082031 213.609375 C 326.457031 213.144531 325.78125 212.773438 325.050781 212.503906 C 324.320312 212.234375 323.570312 212.070312 322.792969 212.015625 C 322.015625 211.960938 321.25 212.019531 320.488281 212.183594 C 320.46875 212.1875 320.445312 212.195312 320.425781 212.199219 C 318.523438 212.59375 316.960938 213.546875 315.738281 215.0625 C 314.132812 216.609375 301.152344 228.410156 277.386719 228.410156 C 254.136719 228.410156 241.3125 217.191406 239.238281 215.238281 C 238.492188 214.246094 237.570312 213.464844 236.464844 212.894531 C 235.363281 212.324219 234.1875 212.023438 232.949219 211.992188 Z M 232.949219 260.859375 C 232.292969 260.84375 231.648438 260.910156 231.011719 261.050781 C 230.988281 261.054688 230.96875 261.0625 230.945312 261.066406 C 229.042969 261.460938 227.480469 262.414062 226.257812 263.929688 C 224.652344 265.472656 211.671875 277.273438 187.90625 277.273438 C 164.65625 277.273438 151.835938 266.054688 149.761719 264.105469 C 148.972656 263.0625 147.988281 262.253906 146.8125 261.683594 C 145.636719 261.117188 144.394531 260.84375 143.085938 260.875 C 142.5625 260.882812 142.042969 260.941406 141.53125 261.050781 C 141.507812 261.054688 141.488281 261.0625 141.46875 261.066406 C 139.5625 261.460938 138 262.414062 136.78125 263.929688 C 135.171875 265.472656 122.191406 277.273438 98.425781 277.273438 C 74.726562 277.273438 61.773438 265.542969 60.105469 263.945312 C 59.316406 262.960938 58.347656 262.199219 57.203125 261.667969 C 56.058594 261.132812 54.855469 260.878906 53.59375 260.90625 C 53.570312 260.90625 53.550781 260.90625 53.527344 260.90625 C 53.449219 260.910156 53.371094 260.917969 53.289062 260.921875 C 52.121094 260.96875 51.015625 261.253906 49.972656 261.78125 C 48.925781 262.304688 48.035156 263.019531 47.300781 263.929688 C 45.691406 265.472656 32.714844 277.273438 8.949219 277.273438 C 8.410156 277.269531 7.875 277.3125 7.34375 277.410156 C 6.816406 277.511719 6.300781 277.660156 5.800781 277.863281 C 5.300781 278.0625 4.824219 278.3125 4.375 278.609375 C 3.921875 278.902344 3.503906 279.242188 3.121094 279.621094 C 2.738281 280 2.394531 280.410156 2.09375 280.859375 C 1.792969 281.304688 1.535156 281.777344 1.328125 282.277344 C 1.121094 282.773438 0.964844 283.289062 0.855469 283.816406 C 0.75 284.34375 0.699219 284.878906 0.699219 285.417969 C 0.699219 285.960938 0.75 286.492188 0.855469 287.023438 C 0.964844 287.550781 1.121094 288.066406 1.328125 288.5625 C 1.535156 289.0625 1.792969 289.535156 2.09375 289.980469 C 2.394531 290.425781 2.738281 290.839844 3.121094 291.21875 C 3.503906 291.597656 3.921875 291.9375 4.375 292.230469 C 4.824219 292.527344 5.300781 292.777344 5.800781 292.976562 C 6.300781 293.179688 6.816406 293.328125 7.34375 293.425781 C 7.875 293.527344 8.410156 293.570312 8.949219 293.5625 C 30.464844 293.5625 45.90625 284.964844 53.6875 279.4375 C 61.46875 284.964844 76.910156 293.5625 98.425781 293.5625 C 119.945312 293.5625 135.386719 284.964844 143.167969 279.4375 C 150.945312 284.964844 166.390625 293.5625 187.90625 293.5625 C 209.421875 293.5625 224.867188 284.964844 232.644531 279.4375 C 240.425781 284.964844 255.867188 293.5625 277.386719 293.5625 C 298.902344 293.5625 314.347656 284.964844 322.125 279.4375 C 329.90625 284.964844 345.347656 293.5625 366.867188 293.5625 C 367.40625 293.570312 367.9375 293.527344 368.46875 293.425781 C 369 293.328125 369.511719 293.179688 370.015625 292.976562 C 370.515625 292.777344 370.988281 292.527344 371.441406 292.230469 C 371.890625 291.9375 372.308594 291.597656 372.691406 291.21875 C 373.074219 290.839844 373.417969 290.425781 373.71875 289.980469 C 374.023438 289.535156 374.277344 289.0625 374.484375 288.5625 C 374.691406 288.066406 374.851562 287.550781 374.957031 287.023438 C 375.0625 286.492188 375.117188 285.960938 375.117188 285.417969 C 375.117188 284.878906 375.0625 284.34375 374.957031 283.816406 C 374.851562 283.289062 374.691406 282.773438 374.484375 282.277344 C 374.277344 281.777344 374.023438 281.304688 373.71875 280.859375 C 373.417969 280.410156 373.074219 280 372.691406 279.621094 C 372.308594 279.242188 371.890625 278.902344 371.441406 278.609375 C 370.988281 278.3125 370.515625 278.0625 370.015625 277.863281 C 369.511719 277.660156 369 277.511719 368.46875 277.410156 C 367.9375 277.3125 367.40625 277.269531 366.867188 277.273438 C 343.613281 277.273438 330.792969 266.054688 328.71875 264.105469 C 328.25 263.484375 327.703125 262.9375 327.082031 262.472656 C 326.457031 262.007812 325.78125 261.640625 325.050781 261.371094 C 324.320312 261.101562 323.570312 260.9375 322.792969 260.882812 C 322.015625 260.828125 321.25 260.882812 320.488281 261.050781 C 320.46875 261.054688 320.445312 261.0625 320.425781 261.066406 C 318.523438 261.460938 316.960938 262.414062 315.738281 263.929688 C 314.132812 265.472656 301.152344 277.273438 277.386719 277.273438 C 254.136719 277.273438 241.3125 266.054688 239.238281 264.105469 C 238.492188 263.109375 237.570312 262.332031 236.464844 261.761719 C 235.363281 261.191406 234.1875 260.890625 232.949219 260.859375 Z M 232.949219 309.726562 C 232.292969 309.710938 231.648438 309.773438 231.011719 309.917969 C 230.988281 309.921875 230.96875 309.925781 230.945312 309.933594 C 229.042969 310.324219 227.480469 311.28125 226.257812 312.796875 C 224.652344 314.339844 211.671875 326.140625 187.90625 326.140625 C 164.65625 326.140625 151.835938 314.921875 149.761719 312.96875 C 148.972656 311.925781 147.988281 311.121094 146.8125 310.550781 C 145.636719 309.980469 144.394531 309.710938 143.085938 309.742188 C 142.5625 309.75 142.042969 309.808594 141.53125 309.917969 C 141.507812 309.921875 141.488281 309.925781 141.46875 309.933594 C 139.5625 310.324219 138 311.28125 136.78125 312.796875 C 135.171875 314.339844 122.191406 326.140625 98.425781 326.140625 C 74.726562 326.140625 61.773438 314.410156 60.105469 312.8125 C 59.316406 311.828125 58.347656 311.066406 57.203125 310.53125 C 56.058594 310 54.855469 309.746094 53.59375 309.773438 C 53.570312 309.773438 53.550781 309.773438 53.527344 309.773438 C 53.449219 309.777344 53.371094 309.78125 53.289062 309.789062 C 52.121094 309.835938 51.015625 310.121094 49.972656 310.644531 C 48.925781 311.171875 48.035156 311.886719 47.300781 312.796875 C 45.691406 314.339844 32.714844 326.140625 8.949219 326.140625 C 8.410156 326.132812 7.875 326.179688 7.34375 326.277344 C 6.816406 326.375 6.300781 326.527344 5.800781 326.726562 C 5.300781 326.929688 4.824219 327.175781 4.371094 327.472656 C 3.921875 327.769531 3.503906 328.105469 3.121094 328.484375 C 2.738281 328.863281 2.394531 329.277344 2.09375 329.722656 C 1.789062 330.171875 1.535156 330.644531 1.328125 331.140625 C 1.121094 331.640625 0.960938 332.152344 0.855469 332.683594 C 0.75 333.210938 0.695312 333.746094 0.695312 334.285156 C 0.695312 334.824219 0.75 335.359375 0.855469 335.890625 C 0.960938 336.417969 1.121094 336.929688 1.328125 337.429688 C 1.535156 337.925781 1.789062 338.398438 2.09375 338.847656 C 2.394531 339.292969 2.738281 339.707031 3.121094 340.085938 C 3.503906 340.464844 3.921875 340.800781 4.371094 341.097656 C 4.824219 341.394531 5.300781 341.640625 5.800781 341.84375 C 6.300781 342.046875 6.816406 342.195312 7.34375 342.292969 C 7.875 342.390625 8.410156 342.4375 8.949219 342.429688 C 30.464844 342.429688 45.90625 333.828125 53.6875 328.304688 C 61.46875 333.828125 76.910156 342.429688 98.425781 342.429688 C 119.945312 342.429688 135.386719 333.828125 143.167969 328.304688 C 150.945312 333.828125 166.390625 342.429688 187.90625 342.429688 C 209.421875 342.429688 224.867188 333.828125 232.644531 328.304688 C 240.425781 333.828125 255.867188 342.429688 277.386719 342.429688 C 298.902344 342.429688 314.347656 333.828125 322.125 328.304688 C 329.90625 333.828125 345.347656 342.429688 366.867188 342.429688 C 367.40625 342.4375 367.9375 342.390625 368.46875 342.292969 C 369 342.195312 369.515625 342.046875 370.015625 341.84375 C 370.515625 341.640625 370.988281 341.394531 371.441406 341.097656 C 371.890625 340.800781 372.308594 340.464844 372.691406 340.085938 C 373.078125 339.707031 373.417969 339.292969 373.722656 338.847656 C 374.023438 338.398438 374.277344 337.925781 374.484375 337.429688 C 374.695312 336.929688 374.851562 336.417969 374.957031 335.890625 C 375.0625 335.359375 375.117188 334.824219 375.117188 334.285156 C 375.117188 333.746094 375.0625 333.210938 374.957031 332.683594 C 374.851562 332.152344 374.695312 331.640625 374.484375 331.140625 C 374.277344 330.644531 374.023438 330.171875 373.722656 329.722656 C 373.417969 329.277344 373.078125 328.863281 372.691406 328.484375 C 372.308594 328.105469 371.890625 327.769531 371.441406 327.472656 C 370.988281 327.175781 370.515625 326.929688 370.015625 326.726562 C 369.515625 326.527344 369 326.375 368.46875 326.277344 C 367.9375 326.179688 367.40625 326.132812 366.867188 326.140625 C 343.613281 326.140625 330.792969 314.921875 328.71875 312.96875 C 328.25 312.347656 327.703125 311.804688 327.082031 311.339844 C 326.457031 310.875 325.78125 310.507812 325.050781 310.238281 C 324.320312 309.964844 323.570312 309.804688 322.792969 309.75 C 322.015625 309.695312 321.25 309.75 320.488281 309.917969 C 320.46875 309.921875 320.445312 309.925781 320.425781 309.933594 C 318.523438 310.324219 316.960938 311.28125 315.738281 312.796875 C 314.132812 314.339844 301.152344 326.140625 277.386719 326.140625 C 254.136719 326.140625 241.3125 314.921875 239.238281 312.96875 C 238.492188 311.976562 237.570312 311.195312 236.464844 310.628906 C 235.363281 310.058594 234.1875 309.757812 232.949219 309.726562 Z M 232.949219 309.726562 " fill-opacity="1" fill-rule="nonzero"/></g><path fill="rgb(92.549133%, 32.159424%, 25.878906%)" d="M 310.539062 73.460938 C 285.6875 73.460938 265.539062 93.609375 265.539062 118.460938 C 265.539062 143.3125 285.6875 163.460938 310.539062 163.460938 C 335.390625 163.460938 355.539062 143.3125 355.539062 118.460938 C 355.539062 93.609375 335.390625 73.460938 310.539062 73.460938 Z M 310.539062 73.460938 " fill-opacity="1" fill-rule="nonzero"/></svg>