<?xml version="1.0" encoding="UTF-8"?><svg xmlns="http://www.w3.org/2000/svg" xmlns:xlink="http://www.w3.org/1999/xlink" contentScriptType="text/ecmascript" width="375" zoomAndPan="magnify" contentStyleType="text/css" viewBox="0 0 375 374.999991" height="374.999991" preserveAspectRatio="xMidYMid meet" version="1.0"><defs><clipPath id="clip-0"><path d="M 1 12.1875 L 369 12.1875 L 369 363.1875 L 1 363.1875 Z M 1 12.1875 " clip-rule="nonzero"/></clipPath></defs><g clip-path="url(#clip-0)"><path fill="rgb(100%, 100%, 100%)" d="M 184.679688 12.21875 C 162.703125 12.21875 144.835938 30.105469 144.835938 52.105469 C 144.835938 74.105469 162.703125 91.992188 184.679688 91.992188 C 206.65625 91.992188 224.523438 74.105469 224.523438 52.105469 C 224.523438 30.105469 206.65625 12.21875 184.679688 12.21875 Z M 19.609375 59.925781 C 16.960938 59.988281 14.472656 61.390625 13.070312 63.664062 C 11.640625 65.910156 11.421875 68.746094 12.511719 71.175781 C 22.566406 94.546875 14.628906 105.859375 7.59375 121.84375 C 4.042969 129.851562 0.621094 138.984375 1.617188 149.765625 C 2.582031 160.515625 7.996094 172.011719 19.453125 184.976562 C 21.320312 187.21875 24.246094 188.25 27.078125 187.71875 C 29.941406 187.15625 32.246094 185.101562 33.148438 182.328125 C 34.050781 179.585938 33.367188 176.5625 31.375 174.445312 C 21.351562 163.070312 18.082031 154.9375 17.492188 148.300781 C 16.867188 141.664062 18.921875 135.648438 22.160156 128.292969 C 28.667969 113.585938 39.40625 93.363281 27.140625 64.851562 C 25.894531 61.828125 22.90625 59.863281 19.609375 59.925781 Z M 67.421875 59.925781 C 64.773438 59.988281 62.285156 61.390625 60.882812 63.664062 C 59.453125 65.910156 59.234375 68.746094 60.324219 71.175781 C 70.378906 94.546875 62.441406 105.859375 55.40625 121.84375 C 51.855469 129.851562 48.433594 138.984375 49.429688 149.765625 C 50.394531 160.515625 55.808594 172.011719 67.265625 184.976562 C 69.132812 187.21875 72.058594 188.25 74.890625 187.71875 C 77.753906 187.15625 80.058594 185.101562 80.960938 182.328125 C 81.863281 179.585938 81.179688 176.5625 79.21875 174.445312 C 69.164062 163.070312 65.894531 154.9375 65.304688 148.300781 C 64.679688 141.664062 66.734375 135.648438 69.972656 128.292969 C 76.480469 113.585938 87.21875 93.363281 74.984375 64.851562 C 73.707031 61.828125 70.71875 59.863281 67.421875 59.925781 Z M 306.484375 59.925781 C 303.835938 59.988281 301.347656 61.390625 299.945312 63.664062 C 298.515625 65.910156 298.296875 68.746094 299.386719 71.175781 C 309.441406 94.546875 301.503906 105.859375 294.4375 121.84375 C 290.917969 129.851562 287.496094 138.984375 288.460938 149.765625 C 289.457031 160.515625 294.871094 172.011719 306.328125 184.976562 C 308.195312 187.21875 311.121094 188.25 313.953125 187.71875 C 316.816406 187.15625 319.121094 185.101562 320.023438 182.328125 C 320.925781 179.585938 320.242188 176.5625 318.28125 174.445312 C 308.226562 163.070312 304.957031 154.9375 304.367188 148.300781 C 303.742188 141.664062 305.796875 135.648438 309.035156 128.292969 C 315.542969 113.585938 326.28125 93.363281 314.046875 64.851562 C 312.769531 61.828125 309.78125 59.863281 306.484375 59.925781 Z M 354.296875 59.925781 C 351.648438 59.988281 349.160156 61.390625 347.757812 63.664062 C 346.328125 65.910156 346.109375 68.746094 347.199219 71.175781 C 357.253906 94.546875 349.316406 105.859375 342.25 121.84375 C 338.730469 129.851562 335.308594 138.984375 336.273438 149.765625 C 337.269531 160.515625 342.683594 172.011719 354.140625 184.976562 C 355.511719 186.660156 357.503906 187.65625 359.648438 187.8125 C 359.929688 187.84375 360.179688 187.875 360.460938 187.84375 C 363.601562 187.78125 366.40625 185.878906 367.617188 182.949219 C 368.832031 180.054688 368.210938 176.71875 366.09375 174.445312 C 356.039062 163.070312 352.769531 154.9375 352.179688 148.300781 C 351.554688 141.664062 353.609375 135.648438 356.847656 128.292969 C 363.355469 113.585938 374.09375 93.363281 361.859375 64.851562 C 360.582031 61.828125 357.59375 59.863281 354.296875 59.925781 Z M 152.835938 99.9375 C 141.472656 99.9375 126.410156 104.332031 119.0625 125.117188 C 117.351562 129.851562 113.832031 141.601562 109.785156 155.25 C 105.988281 168.054688 101.722656 182.328125 98.207031 193.296875 C 97.429688 195.820312 97.023438 198.375 97.023438 200.898438 C 97.023438 216.105469 108.632812 217.726562 108.632812 217.726562 L 183.558594 234.988281 C 187.230469 236.082031 196.914062 236.796875 199.808594 228.042969 C 201.175781 223.960938 200.960938 219.9375 199.246094 216.730469 C 198.035156 214.421875 196.105469 212.710938 194.050781 212.148438 C 187.140625 210.621094 145.335938 199.0625 143.527344 198.5625 C 139.328125 197.410156 136.835938 193.078125 137.988281 188.839844 L 145.148438 161.667969 C 146.300781 157.429688 150.65625 154.90625 154.921875 156.027344 C 159.15625 157.148438 161.707031 161.511719 160.554688 165.78125 L 155.417969 185.289062 C 167.0625 188.496094 182.21875 192.671875 191.183594 195.011719 L 217.023438 187.78125 L 210.578125 166 C 209.332031 161.792969 211.730469 157.335938 215.964844 156.058594 C 220.164062 154.84375 224.585938 157.242188 225.832031 161.480469 L 234.609375 191.023438 C 235.199219 193.078125 234.953125 195.257812 233.925781 197.160156 C 232.898438 199.03125 231.152344 200.402344 229.097656 200.960938 L 211.167969 205.980469 C 211.917969 207.007812 212.695312 208.035156 213.316406 209.15625 C 216.585938 215.296875 217.488281 222.402344 215.933594 229.535156 L 261.503906 218.101562 C 261.503906 218.101562 272.617188 213.863281 272.617188 201.398438 C 272.617188 198.53125 272.210938 195.507812 271.402344 192.425781 C 267.699219 174.816406 251.917969 127.359375 251.199219 125.179688 C 245.472656 109.128906 232.835938 99.9375 216.585938 99.9375 Z M 93.320312 227.574219 L 91.359375 230.160156 C 90.578125 231.78125 90.113281 233.589844 89.863281 235.550781 L 9.398438 235.550781 C 6.535156 235.519531 3.859375 237.015625 2.394531 239.507812 C 0.960938 242 0.960938 245.054688 2.394531 247.546875 C 3.859375 250.042969 6.535156 251.535156 9.398438 251.503906 L 93.226562 251.503906 L 105.023438 347.234375 C 105.023438 347.234375 105.210938 347.417969 105.550781 347.730469 C 107.605469 356.550781 115.480469 363.1875 124.945312 363.1875 C 135.964844 363.1875 144.867188 354.273438 144.867188 343.246094 C 144.867188 342.464844 144.710938 341.71875 144.617188 340.96875 C 144.898438 340.503906 144.992188 339.941406 144.867188 339.253906 L 136.898438 259.484375 L 171.949219 248.671875 C 171.949219 248.671875 103.746094 233.527344 100.539062 232.308594 C 97.367188 231.0625 93.320312 227.574219 93.320312 227.574219 Z M 272.367188 227.824219 C 272.367188 227.824219 269.503906 232.277344 265.457031 233.558594 C 261.410156 234.804688 201.238281 249.667969 201.238281 249.667969 L 232.523438 259.484375 L 224.554688 339.253906 C 224.398438 340.035156 224.492188 340.6875 224.773438 341.21875 C 224.679688 341.875 224.554688 342.558594 224.554688 343.246094 C 224.554688 354.273438 233.457031 363.1875 244.476562 363.1875 C 252.132812 363.1875 258.671875 358.824219 262.03125 352.5 C 263.089844 351.097656 263.992188 349.507812 264.398438 347.234375 L 279.371094 251.503906 L 360.023438 251.503906 C 362.886719 251.535156 365.5625 250.042969 367.027344 247.546875 C 368.460938 245.054688 368.460938 242 367.027344 239.507812 C 365.5625 237.015625 362.886719 235.519531 360.023438 235.550781 L 278.46875 235.550781 C 277.691406 233.898438 276.820312 232.339844 275.761719 230.96875 Z M 272.367188 227.824219 " fill-opacity="1" fill-rule="nonzero"/></g><path fill="rgb(92.549133%, 32.159424%, 25.878906%)" d="M 184.59375 7.242188 C 159.742188 7.242188 139.59375 26.886719 139.59375 51.117188 C 139.59375 75.347656 159.742188 94.992188 184.59375 94.992188 C 209.449219 94.992188 229.59375 75.347656 229.59375 51.117188 C 229.59375 26.886719 209.449219 7.242188 184.59375 7.242188 Z M 184.59375 7.242188 " fill-opacity="1" fill-rule="nonzero"/></svg>