<?xml version="1.0" encoding="UTF-8"?><svg xmlns="http://www.w3.org/2000/svg" xmlns:xlink="http://www.w3.org/1999/xlink" contentScriptType="text/ecmascript" width="375" zoomAndPan="magnify" contentStyleType="text/css" viewBox="0 0 375 374.999991" height="374.999991" preserveAspectRatio="xMidYMid meet" version="1.0"><path fill="rgb(92.549133%, 32.159424%, 25.878906%)" d="M 26.898438 368.398438 L 14.628906 356.117188 L 98.675781 271.964844 L 110.945312 284.246094 L 26.898438 368.398438 " fill-opacity="1" fill-rule="nonzero"/><path fill="rgb(92.549133%, 32.159424%, 25.878906%)" d="M 117.613281 94.375 C 117.613281 102.792969 110.71875 109.621094 102.210938 109.621094 C 93.695312 109.621094 86.800781 102.792969 86.800781 94.375 C 86.800781 85.953125 93.695312 79.128906 102.210938 79.128906 C 110.71875 79.128906 117.613281 85.953125 117.613281 94.375 " fill-opacity="1" fill-rule="nonzero"/><path fill="rgb(100%, 100%, 100%)" d="M 358.632812 106.636719 C 355.359375 134.632812 341.332031 162.292969 319.132812 184.519531 C 300.007812 203.664062 277.277344 216.203125 254.726562 221.65625 C 252.203125 221.855469 242.621094 222.675781 229.132812 224.773438 C 207.449219 224.734375 187.363281 217.550781 172.582031 202.75 C 158.222656 188.371094 150.605469 168.609375 150.570312 146.199219 C 152.699219 132.496094 153.519531 122.796875 153.707031 120.40625 C 159.304688 97.125 172.167969 74.65625 190.792969 56.011719 C 212.988281 33.789062 240.613281 19.742188 268.570312 16.460938 C 272.695312 15.980469 276.753906 15.738281 280.726562 15.738281 C 303.160156 15.738281 322.957031 23.375 337.34375 37.777344 C 354.285156 54.742188 361.84375 79.195312 358.632812 106.636719 Z M 102.644531 269.0625 C 123.789062 245.742188 136.394531 210.6875 143.792969 180.40625 C 148.109375 192.21875 154.777344 202.808594 163.648438 211.691406 C 172.660156 220.714844 183.355469 227.289062 195.078125 231.53125 C 164.792969 238.929688 129.691406 251.558594 106.351562 272.769531 Z M 97.304688 291.023438 L 84.417969 278.117188 L 91.183594 271.339844 L 104.074219 284.246094 Z M 14.007812 348.609375 L 79.605469 282.929688 L 92.496094 295.839844 L 26.898438 361.519531 Z M 346.277344 28.839844 C 326.546875 9.085938 298.433594 0.234375 267.101562 3.902344 C 236.332031 7.511719 206.058594 22.84375 181.859375 47.070312 C 157.664062 71.296875 142.351562 101.609375 138.746094 132.421875 C 138.261719 136.542969 138.003906 140.597656 137.953125 144.597656 C 132.933594 176.285156 120.820312 229.804688 93.703125 260.109375 L 91.183594 257.582031 L 0.269531 348.609375 L 26.898438 375.273438 L 117.816406 284.246094 L 115.296875 281.722656 C 145.808594 254.351562 199.890625 242.246094 231.433594 237.300781 C 239.535156 237.144531 247.792969 236.121094 256.066406 234.234375 C 256.121094 234.230469 256.15625 234.230469 256.171875 234.226562 L 256.167969 234.214844 C 281.457031 228.445312 306.839844 214.707031 328.0625 193.460938 C 352.261719 169.230469 367.574219 138.921875 371.175781 108.105469 C 374.847656 76.742188 366.003906 48.589844 346.277344 28.839844 " fill-opacity="1" fill-rule="nonzero"/><path fill="rgb(100%, 100%, 100%)" d="M 339.773438 64.214844 L 311.070312 92.953125 L 282.9375 64.785156 L 311.640625 36.046875 Z M 339.203125 128 L 310.5 156.738281 L 282.367188 128.570312 L 311.070312 99.832031 Z M 278.363281 188.914062 L 250.230469 160.746094 L 278.933594 132.007812 L 307.066406 160.175781 Z M 218.664062 129.140625 L 247.363281 100.402344 L 275.496094 128.570312 L 246.796875 157.308594 Z M 214.660156 189.484375 L 186.527344 161.316406 L 215.226562 132.578125 L 243.359375 160.746094 Z M 187.09375 97.53125 L 215.796875 68.792969 L 243.929688 96.960938 L 215.226562 125.699219 Z M 247.933594 36.617188 L 276.066406 64.785156 L 247.363281 93.523438 L 219.230469 65.355469 Z M 307.636719 96.390625 L 278.933594 125.128906 L 250.800781 96.960938 L 279.5 68.222656 Z M 318.320312 29.355469 C 316.828125 28.535156 315.300781 27.769531 313.75 27.054688 L 311.640625 29.167969 L 306.75 24.269531 C 303.679688 23.226562 300.53125 22.363281 297.308594 21.699219 L 308.203125 32.609375 L 279.5 61.347656 L 251.367188 33.175781 L 263.253906 21.277344 C 260.382812 21.746094 257.496094 22.339844 254.613281 23.050781 L 247.933594 29.738281 L 244.3125 26.113281 C 242.644531 26.695312 240.972656 27.3125 239.308594 27.980469 L 244.5 33.175781 L 215.796875 61.914062 L 203.367188 49.472656 C 202.125 50.5 200.886719 51.558594 199.664062 52.640625 L 212.363281 65.355469 L 183.660156 94.09375 L 173.332031 83.757812 C 172.445312 85.183594 171.585938 86.617188 170.765625 88.058594 L 180.226562 97.53125 L 157.871094 119.914062 C 157.160156 122.804688 156.566406 125.691406 156.097656 128.570312 L 183.660156 100.972656 L 211.792969 129.140625 L 183.089844 157.882812 L 155.789062 130.546875 C 155.492188 132.613281 155.261719 134.671875 155.089844 136.722656 L 179.65625 161.316406 L 161.871094 179.125 C 162.582031 180.675781 163.34375 182.207031 164.164062 183.703125 L 183.089844 164.753906 L 211.222656 192.921875 L 192.511719 211.660156 C 194.023438 212.460938 195.570312 213.210938 197.140625 213.90625 L 214.660156 196.363281 L 238.527344 220.261719 C 240.570312 220.09375 242.628906 219.859375 244.691406 219.558594 L 218.089844 192.921875 L 246.796875 164.183594 L 274.929688 192.351562 L 248.351562 218.964844 C 251.289062 218.4375 254.234375 217.78125 257.183594 217 L 278.363281 195.796875 L 287.125 204.566406 C 288.566406 203.742188 290.003906 202.882812 291.425781 201.992188 L 281.796875 192.351562 L 310.5 163.613281 L 322.5 175.628906 C 323.582031 174.40625 324.636719 173.171875 325.667969 171.925781 L 313.933594 160.175781 L 342.636719 131.4375 L 347.132812 135.9375 C 347.792969 134.273438 348.414062 132.601562 348.992188 130.925781 L 346.070312 128 L 351.578125 122.484375 C 352.359375 119.535156 353.007812 116.589844 353.535156 113.648438 L 342.636719 124.558594 L 314.503906 96.390625 L 343.207031 67.652344 L 353.40625 77.867188 C 352.742188 74.640625 351.878906 71.484375 350.835938 68.414062 L 346.644531 64.214844 L 348.484375 62.367188 C 347.789062 60.796875 347.046875 59.253906 346.242188 57.734375 L 343.207031 60.777344 L 315.074219 32.609375 L 318.320312 29.355469 " fill-opacity="1" fill-rule="nonzero"/><path fill="rgb(100%, 100%, 100%)" d="M 88.292969 82.660156 C 90.898438 86.074219 92.355469 90.273438 92.355469 94.609375 C 92.355469 98.945312 90.898438 103.140625 88.292969 106.554688 C 85.5 103.34375 83.800781 99.167969 83.800781 94.609375 C 83.800781 90.046875 85.5 85.878906 88.292969 82.660156 Z M 112.859375 79.347656 C 109.429688 83.671875 107.515625 89.042969 107.515625 94.609375 C 107.515625 100.171875 109.429688 105.546875 112.859375 109.871094 C 109.878906 111.855469 106.296875 113.011719 102.445312 113.011719 C 98.535156 113.011719 94.90625 111.816406 91.910156 109.777344 C 95.292969 105.472656 97.179688 100.136719 97.179688 94.609375 C 97.179688 89.082031 95.292969 83.746094 91.910156 79.4375 C 94.90625 77.402344 98.535156 76.203125 102.445312 76.203125 C 106.296875 76.203125 109.878906 77.363281 112.859375 79.347656 Z M 121.089844 94.609375 C 121.089844 99.226562 119.347656 103.441406 116.492188 106.675781 C 113.832031 103.230469 112.34375 98.996094 112.34375 94.609375 C 112.34375 90.226562 113.832031 85.984375 116.492188 82.542969 C 119.347656 85.777344 121.089844 89.992188 121.089844 94.609375 Z M 102.445312 120.75 C 116.988281 120.75 128.816406 109.023438 128.816406 94.609375 C 128.816406 80.191406 116.988281 68.46875 102.445312 68.46875 C 87.902344 68.46875 76.074219 80.191406 76.074219 94.609375 C 76.074219 109.023438 87.902344 120.75 102.445312 120.75 " fill-opacity="1" fill-rule="nonzero"/></svg>